<svg version="1.1" xmlns="http://www.w3.org/2000/svg" xmlns:xlink="http://www.w3.org/1999/xlink" x="0px" y="0px" width="240px" height="240px" viewBox="0 0 240 240" style="enable-background:new 0 0 240 240;" xml:space="preserve">
	<title>Ajuinvrij</title>
	<circle style="fill:#FFFFFF;" cx="120" cy="120" r="107"/>
	<g>
		<path style="fill:#89AA0E;" d="M229.6,133.3l10-13.3l-10-13.3l6.5-15.3l-12.9-10.5l2.7-16.4l-15-7.1l-1.3-16.6l-16.3-3.3L188,21.6
		l-16.6,0.7l-8.9-14.1l-16,4.6l-12-11.5L120,9.6l-14.4-8.3l-12,11.5l-16-4.6l-8.9,14.1L52,21.6l-5.3,15.8l-16.3,3.3l-1.3,16.6
		l-15,7.1l2.7,16.4L3.8,91.4l6.5,15.3L0.4,120l10,13.3l-6.5,15.3l12.9,10.5l-2.7,16.4l15,7.1l1.3,16.6l16.3,3.3l5.3,15.8l16.6-0.7
		l8.9,14.1l16-4.6l12,11.5l14.4-8.3l14.4,8.3l12-11.5l16,4.6l8.9-14.1l16.6,0.7l5.3-15.8l16.3-3.3l1.3-16.6l15-7.1l-2.7-16.4
		l12.9-10.5L229.6,133.3z M120,226c-58.5,0-106-47.5-106-106C14,61.5,61.5,14,120,14s106,47.5,106,106C226,178.5,178.5,226,120,226z
		"/>
		<path style="fill:#90BE0C;" d="M120,18C63.8,18,18,63.8,18,120s45.8,102,102,102s102-45.8,102-102S176.2,18,120,18z M120,218
		c-54,0-98-44-98-98c0-54,44-98,98-98s98,44,98,98C218,174,174,218,120,218z"/>
		<radialGradient id="SVGID1" cx="120" cy="120" r="95" gradientUnits="userSpaceOnUse">
			<stop  offset="1.500496e-02" style="stop-color:#90BE0C"/>
			<stop  offset="0.559" style="stop-color:#8DB50D"/>
			<stop  offset="1" style="stop-color:#89AA0E"/>
		</radialGradient>
		<path style="fill:url(#SVGID1);" d="M49.9,119.9c-0.6-2.4-1.3-5.1-1.9-7.6h-0.2c-0.6,2.5-1.2,5.2-1.8,7.6l-0.6,2.2h5L49.9,119.9z
		M49.9,119.9c-0.6-2.4-1.3-5.1-1.9-7.6h-0.2c-0.6,2.5-1.2,5.2-1.8,7.6l-0.6,2.2h5L49.9,119.9z M49.9,119.9
		c-0.6-2.4-1.3-5.1-1.9-7.6h-0.2c-0.6,2.5-1.2,5.2-1.8,7.6l-0.6,2.2h5L49.9,119.9z M49.9,119.9c-0.6-2.4-1.3-5.1-1.9-7.6h-0.2
		c-0.6,2.5-1.2,5.2-1.8,7.6l-0.6,2.2h5L49.9,119.9z M49.9,119.9c-0.6-2.4-1.3-5.1-1.9-7.6h-0.2c-0.6,2.5-1.2,5.2-1.8,7.6l-0.6,2.2h5
		L49.9,119.9z M163.4,112.5h-2.7v6.6h2.7c2.8,0,4.3-1.2,4.3-3.5C167.7,113.3,166.2,112.5,163.4,112.5z M49.9,119.9
		c-0.6-2.4-1.3-5.1-1.9-7.6h-0.2c-0.6,2.5-1.2,5.2-1.8,7.6l-0.6,2.2h5L49.9,119.9z M163.4,112.5h-2.7v6.6h2.7c2.8,0,4.3-1.2,4.3-3.5
		C167.7,113.3,166.2,112.5,163.4,112.5z M120,25c-52.5,0-95,42.5-95,95c0,52.5,42.5,95,95,95s95-42.5,95-95
		C215,67.5,172.5,25,120,25z M177.1,108.3h5.3v23.5h-5.3V108.3z M174.1,131.8h-5.9l-4.5-8.5h-2.9v8.5h-5.3v-23.5h8.5
		c5,0,9,1.7,9,7.3c0,3.5-1.7,5.6-4.2,6.8L174.1,131.8z M87.6,85.8c4.1-2.6,7.8-5.4,11.1-8.2c16-14.9,9-28.5-0.4-37.6
		c11,5.7,13.9,7.9,17,18.2c1.6-12.6,3.2-16.7,14.3-26.2c-7.8,14.9-6.3,22.8-1.6,30.8c1.1-3.5,3.1-5.7,9.4-8
		c-2.7,3.1-8.5,11.6,4.7,23.4c3.1,2.6,6.5,5.2,10.4,7.6c6.6,4.2,13.8,9,19.9,14.9h-22.3c-2.7-2.8-5.6-5.4-8.7-7.6
		c2.4,2.1,4.7,4.7,6.8,7.6H91.9c2.1-2.9,4.4-5.4,6.8-7.6c-3.1,2.2-6,4.7-8.7,7.6H67.7C73.8,94.8,81,89.9,87.6,85.8z M153.1,108.3
		l-7.1,23.5h-6.4l-7.1-23.5h5.6l2.8,10.9c0.7,2.6,1.2,4.9,1.9,7.5h0.1c0.7-2.6,1.2-5,1.9-7.5l2.8-10.9H153.1z M116.9,123.4v8.3h-5
		v-23.5h5.4l6.1,11.7l2.3,5.2h0.2c-0.2-2.5-0.7-5.8-0.7-8.5v-8.3h5.1v23.5h-5.4l-6.1-11.7l-2.3-5.1h-0.2
		C116.5,117.5,116.9,120.7,116.9,123.4z M107.3,108.3v23.5H102v-23.5H107.3z M88.2,127.6c2.6,0,4.2-1.6,4.2-6.2v-13.1h5.1v12.6
		c0,7.9-3.2,11.3-9.3,11.3s-9.4-3.4-9.4-11.3v-12.6h5.3v13.1C84.1,126,85.5,127.6,88.2,127.6z M62.9,125.3c0.9,1.6,2.1,2.3,3.3,2.3
		c1.9,0,2.9-1,2.9-4.1v-15.2h5.3V124c0,4.5-2.3,8.2-7.5,8.2c-3.6,0-5.9-1.4-7.6-4.2L62.9,125.3z M51.5,126.2h-7.1l-1.5,5.6h-5.4
		l7.4-23.5h6.3l7.4,23.5H53L51.5,126.2z M134.3,187.1c0,0.2,0.1,0.5,0.1,0.7c0.3,2.1,0.5,4.1,0.9,5.8c0.4,1.7,1.4,3.1,2.8,3.2
		c1.4,0.2,2.6-0.2,3.4-0.5c-0.8,0.4-1.9,1.1-3.5,1.1c-0.8,0-1.7-0.3-2.4-1c-0.7-0.6-1.2-1.5-1.6-2.4c-0.8-1.8-1.2-3.8-1.9-5.7
		c-0.1-0.2-0.2-0.5-0.2-0.8c-0.5,0.1-1,0.2-1.6,0.2c-0.1,1-0.1,2,0,3c0.4,5.5,3.9,10.7,5.2,12.6c-1.5-1.8-5.9-5.8-7.2-12.6
		c-0.2-0.9-0.3-1.8-0.3-2.7c-0.6,0.1-1.1,0.1-1.7,0.2c0.3,1.4,0.7,2.8,1,4.2c0.6,3,0.6,6.2-0.3,8.8c-0.9,2.6-2.4,4.3-3.2,5.1
		c0.7-1,2-2.8,2.4-5.3c0.5-2.5,0-5.4-0.9-8.1c-0.5-1.5-1.1-3-1.7-4.6c-0.5,0-1.1,0-1.6,0c0.3,0.9,0.5,1.8,0.5,2.7
		c-0.2,3.3-2.5,6.1-4.1,8.8c-1,1.5-2,3.2-2.1,4.6c-0.1,1.4,0.3,2.6,0.7,3.4c-0.5-0.7-1.1-1.9-1.2-3.4c-0.2-1.5,0.4-3.3,1.4-5.3
		c1-1.9,2.9-5.1,2.5-8c-0.1-1-0.4-2-0.8-3c-0.7,0-1.5,0-2.2,0c0,0.8-0.1,1.5-0.2,2.3c-0.8,6.1-3.8,11.7-5,13.9c0.9-2.3,3-8.3,2.9-14
		c0-0.8,0-1.6-0.1-2.3c-0.7-0.1-1.3-0.1-2-0.2c0,0.3,0,0.7,0,1c-0.1,3-0.8,6.2-2.3,8.5c-1.4,2.3-3.3,3.6-4.3,4.2
		c1-0.8,2.6-2.3,3.6-4.6c1-2.3,1.3-5.2,1-8.1c0-0.4-0.1-0.9-0.1-1.3c-0.5-0.1-0.9-0.1-1.4-0.2c-1.6,3.7-4,6.2-5,7.5
		c0.8-1.4,2.6-4.2,3.7-7.7c-28.2-4.7-50.1-24.9-53.5-50h21.4c3.2,22,16.5,30.3,29.4,34.2c-14.8-5.8-23.6-20.1-24.6-34.2h79.4
		c-0.9,14.2-9.8,28.4-24.6,34.2c12.9-3.9,26.2-12.3,29.4-34.2H186C182.6,162,161.6,181.9,134.3,187.1z M192.3,132.2
		c-3.6,0-6-1.4-7.6-4.2l3.6-2.7c0.9,1.6,2.1,2.3,3.3,2.3c1.9,0,2.9-1,2.9-4.1v-15.2h5.3V124C199.8,128.5,197.5,132.2,192.3,132.2z
		 M163.4,112.5h-2.7v6.6h2.7c2.8,0,4.3-1.2,4.3-3.5C167.7,113.3,166.2,112.5,163.4,112.5z M48,112.3h-0.2c-0.6,2.5-1.2,5.2-1.8,7.6
		l-0.6,2.2h5l-0.6-2.2C49.3,117.5,48.6,114.8,48,112.3z M163.4,112.5h-2.7v6.6h2.7c2.8,0,4.3-1.2,4.3-3.5
		C167.7,113.3,166.2,112.5,163.4,112.5z M49.9,119.9c-0.6-2.4-1.3-5.1-1.9-7.6h-0.2c-0.6,2.5-1.2,5.2-1.8,7.6l-0.6,2.2h5L49.9,119.9
		z M163.4,112.5h-2.7v6.6h2.7c2.8,0,4.3-1.2,4.3-3.5C167.7,113.3,166.2,112.5,163.4,112.5z M49.9,119.9c-0.6-2.4-1.3-5.1-1.9-7.6
		h-0.2c-0.6,2.5-1.2,5.2-1.8,7.6l-0.6,2.2h5L49.9,119.9z M49.9,119.9c-0.6-2.4-1.3-5.1-1.9-7.6h-0.2c-0.6,2.5-1.2,5.2-1.8,7.6
		l-0.6,2.2h5L49.9,119.9z M49.9,119.9c-0.6-2.4-1.3-5.1-1.9-7.6h-0.2c-0.6,2.5-1.2,5.2-1.8,7.6l-0.6,2.2h5L49.9,119.9z M49.9,119.9
		c-0.6-2.4-1.3-5.1-1.9-7.6h-0.2c-0.6,2.5-1.2,5.2-1.8,7.6l-0.6,2.2h5L49.9,119.9z M49.9,119.9c-0.6-2.4-1.3-5.1-1.9-7.6h-0.2
		c-0.6,2.5-1.2,5.2-1.8,7.6l-0.6,2.2h5L49.9,119.9z"/>
	</g>
</svg>