<svg xmlns="http://www.w3.org/2000/svg" xmlns:xlink="http://www.w3.org/1999/xlink" version="1.1" viewBox="0 0 512 512">
  <defs>
    <linearGradient id="linear-gradient" x1="259.5" y1="193.6" x2="259.4" y2="70.1" gradientTransform="translate(0 512) scale(1 -1)" gradientUnits="userSpaceOnUse">
      <stop offset=".3" stop-color="#6e8b9d"/>
      <stop offset="1" stop-color="#30556d"/>
    </linearGradient>
  </defs>
  <path d="M198,303.1l-1.5,5.5c-11.7.5-44.5,0-48.3.5-4.6.7-10.2,4-11.8,8.5,0,0-.7,1.3-1,1.7,2.2,23,9.6,103.9,13.5,119.3-1.3-.3-2.7-.1-4,0q-1.7-13.6-3.5-27.2c-12.8-6.9-17.5-11.9-19.5-26.2,2.4.4,1.1-1.5,1.7-2,2.1-1.5,3.7,11.9,3.2,13.2,3,2.1,5.3,4.8,8.5,6.7,1.6,1,3.2,1.9,4.8,3q.4-.4.7-.7c-1.9-10-2.5-20.2-4-30.3,4.1-10.6,1.2-7.1,0-9.7-.4-.7,2-3.3-1.5-3.2.3-3.2-.7-6.4-1-9.5-.7-8.1-4.4-30.4-3-35.8,2-7.8,9.4-8.8,16-10.8,0,0,.6-.3,0,1.7.6.9,1,.7,1.7.7,2,.2,38.6.2,40.5-.5.1,0,1.3-2,1.3-2.5,3.1-.4,3.2.9,3-5.5,1,1.5.1,3,.7,3.5.9.7,1.8-1,3.3-.5Z" style="fill: #081422;"/>
  <path d="M145,438.7c1.3-.1,2.7-.3,4,0,.4,1.5.6,5.4,3.8,7,3.5,1.8,48.9,1,57.3,1-1.6,4.1.9,2.2,1,4-4.6.7-1.2,3.1-3.8,4-2.4.9-48.5.4-51,0-8.8-1.4-10-11.1-11-11.5-17.7,2.6-15.5-7.6-12.5-8,4-.6-2.3,4.8,12.2,3.5Z" style="fill: #0a0c0f;"/>
  <path d="M303,450.6c-2.2-1.8-4.5,1.8-2.5-4,19.8.1,39.5.9,59.2.5q1.7-.7,3.5-1.5c1.3-1.2,2.3-2.6,3.8-3.5.3-.2.7.5.7.5,1.5-1,.8-2.8,3.8-3.5,1.5-.3,5.5.4,6.3,0,.9-.4.7-3.9,3-4,3.3-.2,7.7,10.6-10.5,8-3,4.7-6.5,10.6-12.5,11.5-4.8.8-50.7.3-53-1-.9-.4-1.3-2.5-1.8-3Z" style="fill: #0a0c0f;"/>
  <path d="M300.5,446.7c-2,5.8.3,2.2,2.5,4-17.9,1.1-82.6-1.4-92,0-.1-1.8-2.5,0-1-4,30.2,0,60.3-.2,90.5,0Z" style="fill: #081422;"/>
  <path d="M384.5,340.7c-3.5,32.9-9.4,65.6-13,98.5-2.9.7-2.3,2.5-3.8,3.5,0,0-.5-.7-.7-.5,6.5-32.4,9-65.5,14.5-98,3.4,2.7.3-3.4,3-3.5Z" style="fill: #081422;"/>
  <path d="M316,308.7c11,0,51.2-.6,55.3,0,7.7,1.1,11.9,6.1,12.2,13.5-4.4-3.2-5.5-6.8-11.8-8h-226q-4.6,1.7-9.3,3.5c1.6-4.5,7.1-7.8,11.8-8.5,3.8-.6,36.5,0,48.3-.5.9,0,1.5.1,2.5,0,37,.7,74-.7,111-.5,1.9,0,4,.5,6,.5Z" style="fill: #d2dce4;"/>
  <path d="M383.5,322.2c.4,7.3-1.9,14.7-2,22-5.5,32.6-8,65.6-14.5,98-1.5.9-2.5,2.3-3.8,3.5q-1.7.7-3.5,1.5c-19.8.4-39.5-.4-59.2-.5-30.2-.2-60.3,0-90.5,0-8.3,0-53.7.8-57.3-1-3.2-1.6-3.4-5.5-3.8-7-3.9-15.4-11.2-96.3-13.5-119.3.3-.4,1-1.7,1-1.7q4.6-1.7,9.3-3.5h226c6.2,1.2,7.4,4.8,11.8,8Z" style="fill: url(#linear-gradient);"/>
  <path d="M345,147.6c-1.5,7.1-4.7,13.6-8.5,19.8,1.4,2.6,3.1,5.1,4.5,7.7l-5.8-2c-.8.3.7,2.4.7,2.5,2,7.6,3.9,18.1,5,26,4.6,31.6,8.9,67.8-14.5,93.2.2.2.6.4.5.7q-1.3.3-2.5.5c2.1-4-.2-1.9-3-3,4.6-4.6,10-12.5,12.5-18.5,4.5-4.8,4.2.6,6.5-6.3-4,.4-1.2-4.8-.3-.7,2.8-4.4,1.7-9.7,1.7-10.2,0-.2,1.4-.4,1.5-3,.2-4-.9-9-1-16,0-.4,1-.1,1-.5,0-3.8-.5-7.7-.5-11.5-1.9-1.2-1.1-2.4-4-1.3-1.2-15.2-5.4-30.1-8.5-45-.3-1.7-2.6-7.8-2.5-8.7,4.6-4.6,6.2-8.6,8.5-14.3,1.4-3.3,2.8-6.4,3.5-10,1.4-6.7,1.8-13.1,1.5-20,6.9-13,3.7,14.5,3.5,20.5Z" style="fill: #081422;"/>
  <path d="M188,160.1c10.5,32.9,35.3,29.7,64.7,24.5q2.1.5,4.2,1c25.2,11.9,55.5,5.5,64-23.5,4,.7,11.2-3.1,15.5-5-2.3,5.7-3.9,9.6-8.5,14.3-.1.9,2.2,7.1,2.5,8.7-5.1,3-9.7,6.9-15,9.5-4.9,2.4-16.5,6.4-21.8,7.5-22,4.6-68.6,2.3-89.7-5.5-7.6-2.8-14.9-7.7-22-11.5.4-2.6,1-5.2,1.5-7.7-1.2-1.6-4.8-4.9-5-5.2-.5-.8-1-1.7-1.5-2.5,4.7-2.5,3.5-2.5,1-9.5q5,2.5,10,5Z" style="fill: #3db3c1;"/>
  <path d="M337,140.7c0,9.1-6.4,17-15,19.5.4-1.9-.3-6.6,1.5-7.5,3.1-1.5,4.8-4.1,7-6.5,1.7-1.9,4.5-4.5,5.5-7,.7,1,.9,1.5,1,1.5Z" style="fill: #0686b8;"/>
  <path d="M177,144.1q4.5,5.2,9,10.5c0,.3,1.2,2.9,2,5.5q-5-2.5-10-5c-1.2-3.3-4.6-8.1-4.5-14.5,2.1,1,1.1,3.4,3.5,3.5Z" style="fill: #0799b7;"/>
  <path d="M324.5,296.1c-.5.9-1,.9-1,1-5.1,0-4.4,11.5-7.5,10.5.4-6.1-.8-3.1-2-3.5,0,0-.4-1-.7-1-1.7-.1-3.8,2.6-4.2-.5,2.8-1.4,10.1-7.1,12.5-9.5,2.8,1.1,5.1-1,3,3Z" style="fill: #0a0c0f;"/>
  <path d="M341,175.1c3.4,6.4,7.7,12.3,11,18.8,16.3,32,32.1,81.6,6,112,34.1-.5,29.1,10.8,26.5,34.8-2.7.1.4,6.2-3,3.5,0-7.3,2.3-14.7,2-22-.4-7.4-4.6-12.4-12.2-13.5-4-.6-44.3,0-55.3,0v-1c3.1,1,2.4-10.5,7.5-10.5-1,1.6-2.3,1.7-2.5,2.2-3.1,9.3,4.9,6.2,5.5,6.3,8.4.4,16.8,1.1,25.3,0,22.1-24.8,16.8-54.3,6.7-83-5.7-16.3-13.7-32.8-22.5-47,0-.1-1.5-2.2-.7-2.5q2.9,1,5.7,2Z" style="fill: #051f37;"/>
  <path d="M358.5,222.7c10,28.7,15.3,58.2-6.7,83-8.4,1.1-16.8.4-25.3,0,.3-2.6.1-7.9.5-10,0-.4-.3-.5-.5-.7,23.4-25.5,19.1-61.6,14.5-93.2,1.5,2.3,1.5-1,1.7-1,.8,0,2.6,12.7,3.2,15.3,5.8,23.1,13.7,44.9,13.5,69.5h1c6-16.5,4.3-29.7,1-46.5-1.1-5.5-4.1-10.8-3-16.3Z" style="fill: #049bcc;"/>
  <path d="M358.5,222.7c-1,5.5,1.9,10.8,3,16.3,3.3,16.8,5,30-1,46.5h-1c.2-24.6-7.7-46.4-13.5-69.5-.7-2.6-2.5-15.2-3.2-15.3-.3,0-.2,3.3-1.7,1-1.2-7.9-3-18.4-5-26,8.8,14.2,16.8,30.7,22.5,47Z" style="fill: #21b1da;"/>
  <path d="M327,295.7c-.4,2.1-.2,7.4-.5,10-.6,0-8.6,3.1-5.5-6.3.2-.5,1.5-.6,2.5-2.2,0,0,.5,0,1-1q1.3-.3,2.5-.5Z" style="fill: #02517f;"/>
  <path d="M316,307.6v1c-2,0-4.2-.5-6-.5l4-4c1.2.4,2.4-2.6,2,3.5Z" style="fill: #21b1da;"/>
  <path d="M204,191.7c-3.9,7.7-6,12.6-8,21-.1.6.1,1.4,0,2,0,.4-3.2,6.7-1.5,8.5-4.1,4.9.3,3.8.5,4,2.7,2.2-1.3,8.7-1.5,12-14.5-10.6-10.8-7.5-.5,4-4.4,2.8,7.6,21.8,9,16,9.4,5.9,5,3.6,2,8.3-10,15.6,1.5,29.9-8,19.8-6.4-6.8-15.4-32.1-18-41.7-1.2-4.7-1.6-12-4-15.3,1-15.7,5.7-34.3,8-50,7.1,3.8,14.4,8.7,22,11.5Z" style="fill: #7ed6e3;"/>
  <path d="M196,287.1c1.1,6.5-9.3-.7,2,10-5.5-3.6-9.6-8.9-13-14.5-10.2-16.8-12.2-33.2-11-52.5,2.4,3.2,2.8,10.6,4,15.3,2.6,9.7,11.6,34.9,18,41.7Z" style="fill: #3db3c1;"/>
  <path d="M182,180.2c-2.3,15.7-7,34.3-8,50-1.2,19.3.8,35.7,11,52.5-5-2.9-4.7-15.1-11-14.5-2.6-4.4-2.2,3.3-13.8,2-2.1-.2-3.9-1.8-5.8-2.5,2.3,0,1.4-.9,1.5-3,4.9,2.7,10.8,1.6,15-1.7.3-2.6-.5-2.1-.5-2.2-.1-4.5-2.2-10.3-1.5-15.7-.4-.4-1.7,1.7-3,3.2-1.9,2.2-3.6,6.4-7,4.5q5.2-6.9,10.5-13.8c0-6.3.6-12.5,1.5-18.8.1-.8,1.3-4.3.7-4.5-5,7.6-13.9,17.3-17.7,25-4.2,1.3-1.6,10.8-7.5,7,1.5-5.1,4.4-9.5,7.5-13.8.1-1.6-10.3-11.9-7-30.7,4.8-.5-.7,2.8,2.5,15.7.9,3.4,3.5,9.2,6,11.2.3.2.6,1.5.7,1.5q2.1-2.9,4.2-5.8c-8.9-13.1-4.4-20.3,1-31.7-2.2,9.4-5.6,15.7-2,25.5.3.7,1.6,4.4,2.2,4.5q5.6-7.6,11.2-15.3c-.8-5.3,6.3-33.7,6-35.5,0-.3-3.3-3.4-3.5-4.2.1,0,.4,0,.5,0,1.5-.8,1.7,0,2.5-2,.2.3,3.8,3.7,5,5.2-.4,2.6-1,5.2-1.4,7.8Z" style="fill: #021414;"/>
  <path d="M154,240.7c-1.2,2.5-3.1,5.8-3.5,8.5-.7,5.1.4,12.7,5.5,15.5-.1,2.1.8,3-1.5,3-.8-.3-1.5-.7-2.2-1-1.5,1,7.2,23.6,26.2,12.8.2-.6-4.2-10.7-4.5-11.2,6.3-.6,6,11.6,11,14.5,3.4,5.6,7.5,10.9,13,14.5,4.7,4.4,11.6,8.5,18,9q.5.7,1,1.5c-3.6,0-9.8,1.3-13.2.5-.5-.1,0-1.3-.5-1.5,0,0-.4.7-.7.5-.3-.1-4.2-3.9-4.5-4-1.5-.5-2.4,1.2-3.2.5-.6-.5.3-2-.7-3.5-1-1.5-10.1-9.5-12.8-15-1.6,1-3.4,1.9-5.2,2.5-1.2.3-2.3.7-3.2,1.5-3.1-2.2-4-1-4.2-1-19.5-3.2-27-23.1-22-40.5,5.8,3.8,3.2-5.7,7.4-7Z" style="fill: #0a0c0f;"/>
  <path d="M174,268.2c.3.5,4.7,10.7,4.5,11.2-19.1,10.9-27.7-11.8-26.2-12.8.8.3,1.4.7,2.2,1,1.8.7,3.6,2.3,5.8,2.5,11.6,1.3,11.1-6.4,13.7-2Z" style="fill: #02517f;"/>
  <path d="M176,169.2c-.1,0-.4,0-.5,0-1.8,1.1-1.6,1.2-3,2.5-15.7,14.7-32,37.6-17,58.5-2.5-2-5.1-7.9-6-11.2-3.2-12.9,2.3-16.3-2.5-15.7,1.1-6.4,4.6-10.8,8-16q.4,1.5.7,3c2.3-3.6,16.6-20.5,18.2-21.5.8-.5,1.6-.3,2,.5Z" style="fill: #052816;"/>
  <path d="M174,168.7c-1.6,1-16,17.9-18.2,21.5q-.4-1.5-.7-3c5.1-7.7,11-13.6,17-20.5.1.1,1.3-.9,2,2Z" style="fill: #02422f;"/>
  <path d="M171.5,176.1c-3.2,6.1-7.1,11.7-10,18-5.4,11.5-9.9,18.6-1,31.7q-2.1,2.9-4.2,5.8c-.2,0-.5-1.3-.7-1.5-15-20.9,1.3-43.9,17-58.5,1.2.4-.5,3.5-1,4.5Z" style="fill: #f0e231;"/>
  <path d="M175.5,169.2c.2.9,3.5,4,3.5,4.2.3,1.8-6.8,30.2-6,35.5q-5.6,7.6-11.2,15.3c-.6,0-2-3.8-2.2-4.5,4.1-4.7,6.6-18.9,9-26.8,1.2-3.8,9-19.8,3-16.7.5-1,2.2-4.1,1-4.5,1.3-1.3,1.1-1.4,3-2.5Z" style="fill: #71ba44;"/>
  <path d="M159.5,219.6c-3.6-9.7-.2-16.1,2-25.5,2.9-6.3,6.8-11.9,10-18,6-3.1-1.9,12.9-3,16.7-2.4,7.9-4.9,22-9,26.8Z" style="fill: #71ba44;"/>
  <path d="M171,220.2c-4.6,3.7-18.7,28.8-12,32.5,3.4,1.9,5.1-2.3,7-4.5,3.6-.6-2.7,5,1.5,12-9.8,0-12.2-2.4-17-11,.4-2.7,2.3-6,3.5-8.5,3.8-7.7,12.7-17.4,17.7-25,.6.2-.6,3.7-.7,4.5Z" style="fill: #bddb36;"/>
  <path d="M171,220.2c-.9,6.2-1.5,12.5-1.5,18.8q-5.2,6.9-10.5,13.8c-6.7-3.7,7.4-28.8,12-32.5Z" style="fill: #71ba44;"/>
  <path d="M167.5,260.2c.3,0,2.4.3,3,.5,0,.1.8-.3.5,2.2-4.2,3.3-10.1,4.4-15,1.7-5.1-2.8-6.2-10.4-5.5-15.5,4.8,8.6,7.1,11,17,11Z" style="fill: #71ba44;"/>
  <path d="M170.5,260.7c-.6-.2-2.6-.5-3-.5-4.2-7,2.1-12.6-1.5-12,1.3-1.5,2.6-3.7,3-3.2-.7,5.4,1.3,11.2,1.5,15.7Z" style="fill: #71ba44;"/>
  <path d="M330.5,180.2c3.1,14.9,7.3,29.8,8.5,45,.5,6,.7,15,.5,21-1.8,0-1.5,5.1-2,7.3-3.1,12-10.8,26.2-18.8,35.8-1.2-10.5-4.5-18.9-12.2-26.2,2.6-1.2,5-2.7,7-4.8,0,0,1-.4,1-.5,4.3,5.5,7.8-9.7,8-14.5,6.9,1.2,13.4-9.2,11.5-10-4-.3-7.7.9-11.5,2-.3,0-.7,0-1,0-.1-1-.7-4.1-1-5.5,0-.4,1.2-3.9-1.5-7.5,1.6-1.6.8-3.3,2.5-6,.3-.4,4.1-.4-2-3,.2-6.9-1.3-17.2-4-23.5,5.4-2.6,10-6.5,15-9.5Z" style="fill: #7ed6e3;"/>
  <path d="M339.5,246.1c-.4,9.6-1.8,19.6-5.5,28.5-2.5,6-7.9,13.9-12.5,18.5-2.4,2.4-9.7,8.1-12.5,9.5-4.1,2.1-6,2.6-10.5,3-4.5.4-12.7,0-18,0-13.2,0-26.3,0-39.5,0-7.6,0-21.3.8-25,.5-6.4-.5-13.3-4.6-18-9-11.3-10.7-.9-3.5-2-10,9.5,10.1-2-4.1,8-19.8,3-4.7,7.4-2.4-2-8.3,0-.1,0-.4,0-.5,1-.6,6.6-3.4,7-3.5.4-.1,3.4,1.1,6-.5.1,1.3,2.4,3.3,3.5,4-2.9,2.9-5.8,4.2-8.5,7.5-1.7,2.1-5.1,6.6-4,9-7.3,31.3,58.9,31,76.8,27,8.3-1.8,22.3-8.6,26.2-16.5,4.5-9-.3-17-7.3-23-4.7-4.1-8.8-1.8-3.2-8.5,3.2,2.2,7,.4,7.5.5,1.2.3,6.1,2.4,7.5,3.5-2,2-4.4,3.6-7,4.8,7.7,7.4,11.1,15.7,12.2,26.2,7.9-9.5,15.6-23.8,18.8-35.8.6-2.1.3-7.3,2-7.3Z" style="fill: #3db3c1;"/>
  <path d="M334,274.6c3.6-8.9,5.1-18.9,5.5-28.5.3-6,0-15-.5-21,2.9-1.2,2.1,0,4,1.3,0,3.8.4,7.7.5,11.5,0,.4-1,.1-1,.5.1,7,1.2,12,1,16-.1,2.6-1.5,2.8-1.5,3,0,.5,1.1,5.9-1.7,10.2-1-4-3.8,1.2.3.7-2.3,6.8-2,1.5-6.5,6.3Z" style="fill: #021414;"/>
  <path d="M345,147.6c.2-6,3.4-33.6-3.5-20.5-.3-7.5-3.8-43.8-16.5-28,.5-5.9,3-4.6,3-5.2,0-1.4-3.9.9-5,.3,18-20.4,27.4,28.5,22,53.5Z" style="fill: #0a0c0f;"/>
  <path d="M325,99.2c-4.2,5.2-10.7,22.2-12.5,29.5-1.8-1.7-3.3-3.9-4-4.5,2.4-8,9.3-24.1,14.5-30,1.1.6,4.9-1.7,5-.3,0,.6-2.5-.6-3,5.2Z" style="fill: #081422;"/>
  <path d="M341.5,127.1c.3,6.8,0,13.3-1.5,20-.5-6.1-1.9-5-3-6.5,0,0-.3-.6-1-1.5,2.1-5.4,1.6-12.8,1-18.5-.6-5.9-2.9-17.2-6.7-21.5-8,8.3-11.7,21-14.7,32-.9-.9-2.1-1.6-3-2.5,1.8-7.3,8.3-24.3,12.5-29.5,12.7-15.8,16.2,20.5,16.5,28Z" style="fill: #f1dae5;"/>
  <path d="M337,120.7q-2.2.3-4.5.5c-.1-.9-.9-3.6-2-4-2-.6-2.4.9-2.5,1-2.5,1.7-9.4,13.3-9.5,15.5-1.6,0-2.1-1.7-3-2.5,3-11,6.7-23.7,14.7-32,3.9,4.3,6.1,15.6,6.8,21.5Z" style="fill: #d5508f;"/>
  <path d="M330,120.1c-.5,2.3.1,3.6-.5,5.2-1.1,3-11.3,18.8-11,8.3,0-2.2,7-13.8,9.5-15.5q1,1,2,2Z" style="fill: #340d26;"/>
  <path d="M336,139.2c-1.5-2-2.9-3.7-4-6,.3-3.7,1.1-8.3.5-12q2.2-.3,4.5-.5c.6,5.7,1.1,13.1-1,18.5Z" style="fill: #b92773;"/>
  <path d="M336,139.2c-1,2.5-3.8,5.1-5.5,7-.5-4.1,1.1-8.7,1.5-13,1.2,2.3,2.5,4,4,6Z" style="fill: #8d1150;"/>
  <path d="M330.5,117.2c1.1,4.1-.5,2.8-.5,3q-1-1-2-2c.1,0,.6-1.6,2.5-1Z" style="fill: #340d26;"/>
  <path d="M340,147.2c-.8,3.6-2.1,6.7-3.5,10-4.3,1.9-11.5,5.7-15.5,5,.5-1.7,1-1.9,1-2,8.6-2.5,15.1-10.4,15-19.5,1.1,1.5,2.5.4,3,6.5Z" style="fill: #7ed6e3;"/>
  <path d="M202.5,307.2c-.3.4-3.3,1.5-3.5,1.5-1,.1-1.6,0-2.5,0l1.5-5.5c.3.1,4.2,3.9,4.5,4Z" style="fill: #0799b7;"/>
  <path d="M314,304.1l-4,4c-37-.2-74,1.2-111,.5.2,0,3.2-1,3.5-1.5.3.1.7-.5.7-.5.5.2,0,1.4.5,1.5,3.4.8,9.6-.5,13.2-.5,8.4,0,25.1,1.2,24-2,13.2,0,26.3,0,39.5,0-2.1,2.8,16.9,2.4,17.7,2,.5-.2.2-1.5.3-2,4.5-.4,6.4-.9,10.5-3,.4,3.1,2.5.4,4.2.5.4,0,.7,1,.8,1Z" style="fill: #051f37;"/>
  <path d="M241,305.7c1.1,3.2-15.6,2-24,2q-.5-.7-1-1.5c3.7.3,17.4-.5,25-.5Z" style="fill: #003135;"/>
  <path d="M174.5,97.2c-6.2,7.9-6.9,32.5-6,42.5.9,10.1,3.1,16.5,8.5,25,.5.8,1,1.7,1.5,2.5-.8,1.9-1.1,1.2-2.5,2-.4-.8-1.2-1-2-.5-.7-2.9-1.9-1.8-2-2-11.1-13.1-12.4-53.7-2-71,1.1.1,1.5,2.9,2.2,3,.3,0,1.1-1.7,2.3-1.5Z" style="fill: #051f37;"/>
  <path d="M193.5,130.6c-.5.7-.8,1.7-1.5,2.5-2.8-1.9-7.4-17.4-12.2-16-3.6,1-3.8,23.3-2.8,27-2.4-.1-1.4-2.5-3.5-3.5-.1,0-.4,0-.5,0-2.1-13.6-1.6-29.4,4.2-42,4.4-1.2,16,27.5,16.2,32Z" style="fill: #d5508f;"/>
  <path d="M193.5,130.6c-.3-4.5-11.9-33.2-16.3-32-5.9,12.6-6.4,28.4-4.2,42-.2,0-2.2.1-4.5-1-.9-10-.2-34.6,6-42.5,8.8-11.2,19.8,24.2,23,29.2,0,.6-3.8,4-4,4.2Z" style="fill: #f5e7e8;"/>
  <path d="M192,133.2c-.7.8-1.8,3.7-2.8,4-1.5.5-4.6-1.3-6.7-.3,2.2,5.7,2,11.9,3.5,17.7q-4.5-5.2-9-10.5c-1-3.7-.8-26,2.8-27,4.8-1.4,9.5,14.1,12.2,16Z" style="fill: #340d26;"/>
  <path d="M173,140.7c.1,0,.4,0,.5,0-.1,6.4,3.3,11.2,4.5,14.5,2.5,7,3.7,7-1,9.5-5.5-8.5-7.6-14.9-8.5-25,2.3,1.2,4.3.9,4.5,1Z" style="fill: #7ed6e3;"/>
  <path d="M176,287.7l-3,3c-3,1.1-20.8,13.8-20,14.7,10.6.2,21.4.6,32,.3,1.9,0,4.3.2,6,0,.1.5-1.1,2.5-1.3,2.5-1.9.7-38.5.7-40.5.5-.7,0-1.1.2-1.7-.7.6-2,0-1.7,0-1.7,1-6.3,15.6-15,21-18,.2,0,1.2-1.2,4.2,1,1-.8,2.1-1.2,3.3-1.5Z" style="fill: #051f37;"/>
  <path d="M194,300.2c.2,6.4.1,5.1-3,5.5-1.7.2-4.1,0-6,0,4.3-7.4-6.4-15.7-7.7-16-1.4-.3-2.9.5-4.2,1l3-3c1.9-.6,3.6-1.5,5.2-2.5,2.6,5.5,11.8,13.5,12.7,15Z" style="fill: #02517f;"/>
  <path d="M185,305.7c-10.6.4-21.4,0-32-.3-.8-1,17-13.7,20-14.7,1.3-.5,2.8-1.3,4.2-1,1.4.3,12.1,8.6,7.7,16Z" style="fill: #0686b8;"/>
  <path d="M137,375.1c-.2-1.2,0-6.5-1.3-6.5-11.2,11.3-12.1,23.2-.3,34.5-3.2-1.9-5.5-4.7-8.5-6.7.5-1.3-1.1-14.7-3.2-13.2-.7.5.6,2.5-1.7,2-.2-1.3.2-2.4,0-4,2,.1.9-3.1,1-3.2,1.8-5.9,7.7-11.9,12.5-15.7,3.5-.1,1.2,2.5,1.5,3.2,1.2,2.6,4.1-.8,0,9.7Z" style="fill: #0a0c0f;"/>
  <path d="M137,375.1c1.5,10.1,2.2,20.2,4,30.3q-.4.4-.7.7c-1.5-1.1-3.1-2-4.8-3-11.8-11.3-11-23.2.3-34.5,1.2,0,1.1,5.3,1.2,6.5Z" style="fill: #b92773;"/>
  <path d="M135.5,362.2c-4.8,3.8-10.7,9.8-12.5,15.7,0,.2,1,3.4-1,3.2-1-6.8-1.6-13.7-3-20.5,3.7,3.5,3.6,7.9,7.5,5.5.2-.1,1.1.1,1.3,0,1.1-1.3-4.6-9.7-3.2-12,4.5,5.2,6.4,1.5,7.5.5.8-.7,1.6-1.4,2.5-2,.3,3.2,1.3,6.3,1,9.5Z" style="fill: #b92773;"/>
  <path d="M132,354.6c-1.2.9-3,4.7-7.5-.5-1.7-1.9-2.1-5.2-3-6,0-.5,0-1,0-1.5-.1-1.4-.5-3.3-1-4.8q.4-.1.7-.3,5.4,6.5,10.8,13Z" style="fill: #f5e7e8;"/>
  <path d="M121,347.6c0,.6.5.5.5.5.8,6.3,2.6,12.2,5,18-3.9,2.5-3.8-2-7.5-5.5,0,0-1,.1-1-.3-.1-2.1,3.1.6,3-1.5,0-1.2-1-.6-1-1,0-3.4-.6-8.1,1-10.2Z" style="fill: #f2c5cd;"/>
  <path d="M121.5,348.2s-.6.1-.5-.5c.1-.1-.3-1,.5-1,0,.5,0,1,0,1.5Z" style="fill: #460615;"/>
  <path d="M124.5,354.2c-1.4,2.3,4.4,10.7,3.2,12-.1.1-1-.1-1.3,0-2.4-5.8-4.2-11.7-5-18,.9.8,1.3,4.1,3,6Z" style="fill: #460615;"/>
  <path d="M304.5,126.7c12.1,22.5-5.6,50.3-29.5,55-4.4.9-9.6,1.8-14,.3,14.1-4.6,28.4-15.7,34-29.8,3.4-2.8,3.4-10.7,3.8-15,1.3-.8,1,15.1,5.8,9.7,3.4-3.8.6-20.1-4.5-22.7.1-.4,0-1,0-1.5,1.6,1.1,3,2.7,4.5,4Z" style="fill: #f0e231;"/>
  <path d="M323.5,152.7c-1.8.9-1.1,5.6-1.5,7.5,0,.1-.5.3-1,2-8.5,29.1-38.8,35.5-64,23.5q4.4,1.3,8.7,2.5c-.4-6.4.8-4.5,3.8-3.5,22.5,7.9,49.3-5.9,49.5-31.5.7.6,4.3-.4,4.5-.5Z" style="fill: #021414;"/>
  <path d="M319,153.2c-.1,25.6-27,39.3-49.5,31.5,1.9.2,3.6-.1,5.5-.5,5.8-1.2,12.8-4.4,17.5-8,5.3,3.2,14.7-5.7,17.5-10.2,5-8.2,6.2-18.4,5-27.8,2.3,4.3,4,10.1,4,15Z" style="fill: #71ba44;"/>
  <path d="M315,138.2c1.2,9.4,0,19.5-5,27.8-2.8,4.6-12.2,13.5-17.5,10.2,14.3-10.9,23.1-32.4,13.5-49,3.2,3.5,6.7,6.7,9,11Z" style="fill: #98d252;"/>
  <path d="M306,127.1c9.6,16.6.7,38.1-13.5,49-4.7,3.6-11.7,6.8-17.5,8v-2.5c23.9-4.7,41.6-32.6,29.5-55,.1.1,1.6-1.5,1.5.5Z" style="fill: #031c0b;"/>
  <path d="M300,122.6c0,.5.1,1,0,1.5-1,4.4-7.2-1.6-14.3-5-3.9-1.9-11.6-3.1-12.2-6.5,4.3-.5,19.1,5,26.5,10Z" style="fill: #f5e9be;"/>
  <path d="M201,164.2c-2.6-3.8-5.5-6.3-6-11.5.7-4.5,4.1-11,6-15.5.7,1.7-1.7,6-2,8.3-1.6,15.1,6.8,16.5,2,18.8Z" style="fill: #d8bc11;"/>
  <path d="M274,134.7c2.3.2-.1-4.2,1.7-6,4.4,21.3,17.2,14,16.3,21.8-.9,8-18.8,19.6-25.7,22.7-.4.2-1.6-.2-2,0-.3.1-.3,1.2-1,1.5-2.2.9-4.9.7-6,1-1.9.6-3.3,1.9-3.5,2-.2,0-.7-.7-4,0-.4,0,0,.9-.5,1-1.5.3-6.3.3-8,.5-.4,0-.1,1-.5,1-.7,0-12.7-.3-14-.5-13.3-4.9-17.6-3.7-25.7-15.5,4.8-2.2-3.6-3.6-2-18.8.2-2.3,2.8-6.5,2-8.3,4.7-11.5-3.8,4.7-5,8.3-4.3,12.5-2.1,23.4-4.5,13-5.1-21.8,14.5-39.2,34-43-12.6,25.7,18.5,51.2,41.5,33-25.7,34.2-78.9,20.2-49.5-25,.4-3-7.1,7.7-7.5,8.5-5.8,11.4-6.2,26.2,5.2,34.2,20.8,14.6,55.7-8.6,58.7-31.5Z" style="fill: #f0e231;"/>
  <path d="M202.8,164.2q8.4,5.6,16.7,11.2c-1.4,2.4-19.6-9.6-16.7-11.2Z" style="fill: #703a00;"/>
  <path d="M273.5,112.7c.7,3.5,8.4,4.6,12.2,6.5,7,3.4,13.2,9.4,14.3,5,5.1,2.6,7.9,18.9,4.5,22.7-4.8,5.4-4.5-10.6-5.8-9.7-.4,4.3-.3,12.2-3.8,15,4.2-10.5,4.6-20.8-4.2-29,15.6,28.5-12,51.2-38,57.5-23.6,5.7-63.5,7.2-57.7-28,.5,5.2,3.4,7.7,6,11.5,8.2,11.8,12.5,10.6,25.7,15.5,1.3.2,13.3.6,14,.5.4,0,.1-1,.5-1,1.7-.1,6.5-.2,8-.5.4,0,0-.9.5-1,3.3-.7,3.8,0,4,0,.2,0,1.6-1.4,3.5-2,1-.3,3.8-.1,6-1,.7-.3.7-1.4,1-1.5.4-.2,1.6.2,2,0,7-3.2,24.8-14.7,25.7-22.7.9-7.7-11.8-.5-16.3-21.8-1.9,1.8.5,6.2-1.7,6,1.9-13.9-5.3-21.4-.5-22Z" style="fill: #f0e231;"/>
  <path d="M195.8,165.2c8,11.9,20.7,15.7,34.2,17.3-12.6.9-31.5-2.8-34.2-17.3Z" style="fill: #d8bc11;"/>
  <path d="M308.5,124.2c.7.6,2.2,2.8,4,4.5.9.9,2.1,1.6,3,2.5.9.9,1.4,2.5,3,2.5-.3,10.5,9.9-5.3,11-8.3.6-1.7,0-2.9.5-5.2,0-.2,1.6,1,.5-3,1.1.4,1.9,3.1,2,4,.6,3.7-.2,8.3-.5,12-.4,4.3-2,8.9-1.5,13-2.2,2.4-3.9,5-7,6.5-.2.1-3.8,1.1-4.5.5,0-4.9-1.7-10.7-4-15-2.3-4.3-5.8-7.5-9-11,.1-2-1.3-.4-1.5-.5-1.5-1.3-2.9-2.9-4.5-4-7.4-5-22.2-10.5-26.5-10-4.8.6,2.3,8.1.5,22-3,22.8-37.9,46.1-58.8,31.5-11.5-8-11.1-22.9-5.2-34.2.4-.7,7.9-11.5,7.5-8.5-29.4,45.2,23.8,59.2,49.5,25-23,18.2-54.1-7.3-41.5-33-19.5,3.8-39.1,21.2-34,43,2.4,10.4.2-.6,4.5-13,1.2-3.6,9.7-19.8,5-8.3-1.9,4.5-5.3,11-6,15.5-5.7,35.2,34.2,33.7,57.7,28,26-6.3,53.6-29,38-57.5,8.8,8.2,8.5,18.5,4.2,29-5.6,14-19.9,25.2-34,29.8,4.4,1.6,9.6.6,14-.3v2.5c-1.9.4-3.6.7-5.5.5-3-1-4.1-2.9-3.8,3.5q-4.4-1.3-8.7-2.5-2.1-.5-4.2-1c-29.4,5.2-54.3,8.4-64.7-24.5-.9-2.6-1.9-5.2-2-5.5-1.5-5.8-1.3-12-3.5-17.7,2.1-1,5.2.8,6.7.3.9-.3,2-3.2,2.8-4,.7-.8,1-1.8,1.5-2.5.2-.3,3.9-3.6,4-4.2-3.2-5.1-14.2-40.4-23-29.3-1.2-.2-2,1.5-2.2,1.5-.7,0-1.1-2.9-2.2-3,12.7-21.2,26.6,17.5,30.7,27,8.6-4.4,16.8-10,26.5-11.5,1.7-1.2-2-8.1,3.2-15.7.2-2-4.5-10.9,2-21,0-1.1-3.8-7.6,3.5-18.5-4.1-9.6,5.2-17.4,4-27,6.3-23.9,22.8-11.4,20.5,9.5,3.6,5.2,4.8,11.5,3.5,17.5,2.7,6.2,4.3,14.1,2,20.5,8.7,8.1,1.3,23.4,7.3,33.3,11.6,2.5,25.7,7.1,35.2,14.5Z" style="fill: #0a0c0f;"/>
  <path d="M237,123.2c.5.4,1.5,2.6,5.2,4.5,6.7,3.3,23.6,6.2,24.3-4,.9-.9,1.8-3.2,2.5-4h1c.9,2.2,1,5.6,1,8-2.1,6.3-8.6,14-15.5,15-10.2,1.5-5.9-5.1-6.3-5.5-.6-.7-11.8-2.3-15.7-8-1.8-2.6-3.4-8.5-2-11.5,2,1.7,3.6,3.8,5.5,5.5Z" style="fill: #eeda9e;"/>
  <path d="M231.5,117.7c-1.4,3,.2,8.9,2,11.5-4.1,1.5,8.3,12.8,10.2,14,3.4,2,13.6,6.1,11.8-.5,6.9-1,13.4-8.7,15.5-15,.1,21.7-23,27.3-35.2,17-7.8-6.5-11-19.5-6.3-28.8,1.3-.9,1.5,1.4,2,1.7Z" style="fill: #d08a45;"/>
  <path d="M245,113.7c7.4,3.8,13.6,5.2,20.5-.5,1.1-.9,2.1-2.1,3-2-2.2,22.1-40.7,12.4-36-9,3.2-5.3,0,5,12.5,11.5Z" style="fill: #d08a45;"/>
  <path d="M259.5,84.2c1.8,3,2.8,10.9,6,10.5-.2.6-.2.9-.5,1.5-10.7,3.5-32.7-2.8-27.5-16.5,6.8,5.4,13.5,7.6,22,4.5Z" style="fill: #eeda9e;"/>
  <path d="M237.5,79.7c-5.2,13.7,16.8,20,27.5,16.5-6.9,15.1-40.3,4.3-30-18.8.8-.4,2.1,1.9,2.5,2.3Z" style="fill: #d08a45;"/>
  <path d="M241,61.2c-4.6,6.3,11.2,18.3,20,14,.5-.3.9-.6,1.5-.5-4.4,13.6-34.8,5.5-24-15.7.9-.3,2.2,2.1,2.5,2.2Z" style="fill: #d08a45;"/>
  <path d="M257,64.1q2,5.5,4,11c-8.8,4.4-24.6-7.8-20-14,4.8,2.9,10.4,4.8,16,3Z" style="fill: #eeda9e;"/>
  <path d="M254.5,43.6c1.2,3.5,1.8,9.1,4,11.5-8.3,7.2-19.7-4.9-12.5-14,3.5,2.9,3.9,2.9,8.5,2.5Z" style="fill: #eeda9e;"/>
  <path d="M246,41.2c-7.2,9,4.2,21.2,12.5,14,.5-.5,1-1,1.5-1.5-1.9,12.8-17.1,7-19.5,1.7-2.8-6,1.3-11.7,2.5-17.5,1-1,1.5,2,3,3.2Z" style="fill: #d08a45;"/>
  <path d="M253.5,41.2c-6.2-1.6-3.4-14.7-5-20.5,6.2-2.7,11.4,18,5,20.5Z" style="fill: #e4d9ce;"/>
  <path d="M261,105.6c0,.3.3.7.5,1-4.4,5.6-17.5-1.7-16.5,7-12.5-6.4-9.3-16.8-12.5-11.5.1-.7-.1-3,1.3-3,6.9,6.7,18.2,10.4,27.2,6.5Z" style="fill: #e5a561;"/>
  <path d="M253.5,41.2c-9.6,3.7-11.3-17.7-5-20.5,1.6,5.8-1.2,18.9,5,20.5Z" style="fill: #f0e231;"/>
  <path d="M266.5,123.6c-.7,10.2-17.6,7.4-24.3,4-3.8-1.9-4.8-4.1-5.2-4.5,8.7,5,21.4,8.1,29.5.5Z" style="fill: #ecbe6f;"/>
  <path d="M265.5,94.7c-3.2.4-4.2-7.6-6-10.5,2.7-1,4.5-3.5,4.8-3.5,2.3,0,2.9,8.1,1.2,14Z" style="fill: #e4d9ce;"/>
  <path d="M262.5,74.6c-.6-.1-1,.3-1.5.5q-2-5.5-4-11c2.3-.7,4-4.2,5-3.2.9,4.5,2,9.3.5,13.8Z" style="fill: #e2e0de;"/>
  <path d="M268.5,111.1c-.9,0-1.9,1.1-3,2-1-2.4-2.5-4.4-4-6.5-.2-.3-.4-.7-.5-1,2.9-1.2,4.1-2.9,6.3-5,.8.2,1.4,9.1,1.3,10.5Z" style="fill: #e4d9ce;"/>
  <path d="M260,53.7c-.5.4-1,1-1.5,1.5-2.2-2.4-2.8-8-4-11.5.4,0,2.1-1.1,2.8-1.5q.4.4.7.7c2,4.1,2.7,6.3,2,10.8Z" style="fill: #e4d9ce;"/>
  <path d="M270,119.7h-1s0-.5.7-1c.5.2.2.7.3,1Z" style="fill: #807566;"/>
  <path d="M255.5,142.7c1.9,6.6-8.4,2.5-11.8.5-1.9-1.2-14.4-12.5-10.2-14,4,5.7,15.1,7.3,15.7,8,.4.4-3.9,7,6.3,5.5Z" style="fill: #d08a45;"/>
  <path d="M265.5,113.2c-6.9,5.7-13.1,4.3-20.5.5-1-8.7,12.1-1.4,16.5-7,1.5,2.1,3,4.1,4,6.5Z" style="fill: #eeda9e;"/>
  <path d="M196,214.7c.1-.6-.1-1.4,0-2,3.9-.3,3.5,3.3,0,2Z" style="fill: #0a0c0f;"/>
  <path d="M334,233.2c-3.1,4.9-9.4,10.7-11.5,2,3.8-1.1,7.5-2.3,11.5-2Z" style="fill: #3db3c1;"/>
  <path d="M319.5,213.2c6.1,2.6,2.3,2.5,2,3-4.4-1.6-12.2-7.4-2-3Z" style="fill: #0a0c0f;"/>
  <path d="M298.5,305.7c0,.5.2,1.8-.3,2-.9.4-19.8.8-17.7-2,5.4,0,13.5.4,18,0Z" style="fill: #003135;"/>
  <path d="M315.5,189.7c2.7,6.4,4.2,16.6,4,23.5-10.1-4.4-2.4,1.4,2,3-1.7,2.7-.9,4.5-2.5,6-8-10.7-39.8-2.5-30.5,31-19.2-7.3-42.6-5.2-62.5-1.5,5.5-32.8-22.6-39-31.5-28.5-1.7-1.8,1.4-8.1,1.5-8.5,3.5,1.3,4-2.3,0-2,2-8.4,4.1-13.3,8-21,21.1,7.8,67.7,10,89.7,5.5,5.2-1.1,16.9-5.2,21.8-7.5Z" style="fill: #def2fb;"/>
  <path d="M288.5,253.2c0,.2,1.1,2.1,1.5,3-.1,2-4.9-1.3-9.7-2.5-15.7-3.8-31.1-3.1-46.7.5-3.2.7-6.3,1.4-9.3,3-.6-.2,1.6-4.9,1.7-5.5,19.9-3.7,43.3-5.8,62.5,1.5Z" style="fill: #7ed6e3;"/>
  <path d="M193.5,239.1c.3-3.3,4.2-9.8,1.5-12,1.8-5.2,11.5-6.3,15.7-4.5,8.1,3.4-12.1-1.6-13.8,17.3q-.6.4-1.3.7t-2.2-1.5Z" style="fill: #f4f9fc;"/>
  <path d="M202,258.6c0,.1,0,.4,0,.5-1.4,5.8-13.4-13.2-9-16,4.7-3,3,4.1,5,9.7,1.3,3.5,3.9,5.4,4,5.8Z" style="fill: #f4f9fc;"/>
  <path d="M215,254.7c-2.6,1.6-5.6.4-6,.5-7.4-5.8-.5-15.6,6.7-11.5,4.3,2.5,3.2,8.5-.7,11Z" style="fill: #f4f9fc;"/>
  <path d="M226,251.6c-.1.6-2.3,5.3-1.7,5.5,2.9-1.6,6-2.3,9.3-3,1.1,1.7-8.5,2.8-13.2,6-1.1,0-1-1-1.7-1.5-1.1-.7-3.4-2.6-3.5-4,3.9-2.5,5.1-8.6.7-11-7.3-4.1-14.1,5.7-6.7,11.5-.4,0-6,2.9-7,3.5,0-.3-2.8-2.2-4-5.8-2-5.7-.3-12.7-5-9.7-10.3-11.5-14-14.6.5-4q1.1.7,2.2,1.5t1.3-.7c1.6-18.8,21.9-13.8,13.8-17.3-4.3-1.8-14-.7-15.7,4.5-.3-.2-4.7.9-.5-4,8.9-10.4,37-4.2,31.5,28.6Z" style="fill: #0a0c0f;"/>
  <path d="M209.7,227.2c5.6-1.6,6.2,8,0,6-2.6-.8-2.5-5.3,0-6Z" style="fill: #f4f9fc;"/>
  <path d="M319,222.1c2.7,3.6,1.4,7.1,1.5,7.5-3.9-7.4-12.4-10.6-18.5-3.8.2,1.6,5.9-.6,11.2,3.8,7.1,5.9,6.9,21.2,1.3,28,0,0-.9.4-1,.5-1.3-1.1-6.3-3.2-7.5-3.5,8.6-8.7-3.8-16.1-9-8.5,0,0-1.2-.2-1.5,1.3-1.1,4.8,4,3.8-1,12.5-7.2-2.5-3.5-1.5-4.5-3.8-.4-.9-1.4-2.8-1.5-3-9.3-33.5,22.5-41.6,30.5-31Z" style="fill: #0a0c0f;"/>
  <path d="M320.5,229.7c.3,1.4.9,4.5,1,5.5.3,2.8,1.1,5,1,8-.2,4.8-3.7,19.9-8,14.5,5.7-6.7,5.9-22.1-1.3-28-5.4-4.4-11-2.2-11.2-3.8,6.1-6.9,14.6-3.6,18.5,3.7Z" style="fill: #e2e0de;"/>
  <path d="M322.5,243.2c.1-3-.7-5.2-1-8,.3,0,.7,0,1,0,2.1,8.7,8.4,2.9,11.5-2,1.9.8-4.6,11.2-11.5,10Z" style="fill: #0a0c0f;"/>
  <path d="M306,254.7c-.5-.1-4.4,1.7-7.5-.5-2.2-1.5-2.6-5.6-1.5-8,5.2-7.6,17.6-.2,9,8.5Z" style="fill: #f4f9fc;"/>
  <path d="M219,261.7c.8,1,.3,2,.5,2.5,1.8,5.3,21.7,13.6,8.5,15-9.9-7.6-15.8.6-8,8.5-6.9,8.7,48.3,10.8,52.8,10.5,3.9-.3,30.7-5,22.3-11,9.4-9.5-1.3-14.9-10-7-12.7-5.7,9.1-2.7,8-14.5,6.9-.9,16.4,19.1,15.5,7.5,2,4.9,1.8,7.4.5,12.5-3.9,7.9-18,14.7-26.2,16.5-17.9,4-84,4.2-76.8-27,.5-2.3,2.9-6.3,4.5-8,2.4-2.6,5.5-3.9,8.5-5.5Z" style="fill: #eac1d6;"/>
  <path d="M297,246.1c-1.1,2.4-.7,6.5,1.5,8-5.6,6.7-1.5,4.4,3.2,8.5,6.9,6,11.7,14,7.3,23,1.3-5.1,1.5-7.6-.5-12.5-7.6-18.5-58.8-27.6-89.5-11.5-3.1,1.6-6.1,2.9-8.5,5.5q-.3-.5-.5-1c2.7-3.3,5.6-4.7,8.5-7.5.7.5.6,1.6,1.7,1.5,4.8-3.2,14.4-4.4,13.2-6,15.6-3.6,31.1-4.4,46.7-.5,4.8,1.2,9.6,4.5,9.7,2.5,1,2.3-2.7,1.3,4.5,3.8,5-8.7,0-7.7,1-12.5.3-1.5,1.4-1.2,1.5-1.2Z" style="fill: #051f37;"/>
  <path d="M210.5,267.2c-1.6,1.7-4,5.7-4.5,8-1.1-2.4,2.3-6.9,4-9q.2.5.5,1Z" style="fill: #0b5a6a;"/>
  <path d="M293,265.6c1.1,11.8-20.7,8.8-8,14.5-10.2,9.3-.6,17.7,10,7,8.4,6-18.3,10.7-22.3,11-4.5.3-59.7-1.8-52.8-10.5,10.6,10.8,20.1.7,8-8.5,13.2-1.4-6.7-9.7-8.5-15,7.6-2.3,15.8-4.5,23.7-5.5,13.1-1.6,47.4-.9,49.7,5.2.1.3,0,1.1,0,1.7Z" style="fill: #f5e7e8;"/>
  <path d="M308.5,273.2c.9,11.5-8.6-8.4-15.5-7.5,0-.7.1-1.5,0-1.7-2.3-6.1-36.6-6.8-49.7-5.2-7.9,1-16.1,3.2-23.7,5.5-.2-.5.3-1.5-.5-2.5,30.7-16.1,81.9-7,89.5,11.5Z" style="fill: #eac1d6;"/>
  <path d="M295,287.1c-10.6,10.7-20.2,2.2-10-7,8.7-7.9,19.4-2.5,10,7Z" style="fill: #1b0f1d;"/>
  <path d="M292.2,279.1c6.9-.7.9,6.1-3,7.5-10,3.6-.3-7.2,3-7.5Z" style="fill: #da88b8;"/>
  <path d="M228,279.1c12.1,9.2,2.6,19.3-8,8.5-7.8-7.9-1.9-16,8-8.5Z" style="fill: #1b0f1d;"/>
  <path d="M220.2,279.1c2.2-.9,6.8,2.4,7.7,4.2,5.7,10.5-15.5-1.2-7.7-4.2Z" style="fill: #be6aa0;"/>
  <path d="M276.3,358.4c-5.5-5.5-12.4-8.3-20.6-8.3s-15.1,2.8-20.6,8.3c-5.5,5.5-8.3,12.5-8.3,20.8s1.3,10.3,3.8,14.7c2.5,4.3,5.8,7.6,9.9,9.7l2.4-4.1c-3.5-1.9-6.3-4.6-8.3-8.1-2.1-3.6-3.2-7.7-3.2-12.2,0-6.8,2.3-12.6,7-17.2s10.4-6.9,17.2-6.9,12.6,2.3,17.2,6.9,7,10.4,7,17.2-1.1,8.6-3.2,12.2c-2,3.5-4.8,6.1-8.3,7.8l2.3,4c4.2-2,7.6-5.1,10-9.4,2.5-4.3,3.8-9.3,3.8-14.6,0-8.3-2.8-15.3-8.3-20.8Z" style="fill: #d2dce4;"/>
  <path d="M260.8,377.8c0-2.8-2.3-5.1-5.1-5.1s-5.1,2.3-5.1,5.1,0,.5,0,.8h0l4.5,30.5h0c0,.3.2.4.5.4s.5-.2.5-.4h0l4.5-30.5h0c0-.3,0-.5,0-.8Z" style="fill: #85c441;"/>
  <rect width="512" height="512" style="fill: none;"/>
</svg>