<svg xmlns="http://www.w3.org/2000/svg" viewBox="0 0 512 512">
  <rect fill="maroon" x="42.6666667" y="439.4666667" width="426.6666667" height="29.8666667"/>
  <path fill="#b22222" d="M379.7333333,375.4666667l89.6,64H42.6666667l89.6-64h61.625599l-5.1583984,14.2911979c-2.0864063,5.785599-1.8026693,12.0469271.8,17.6277344,1.8922656,4.0511979,4.8895964,7.4346615,8.6741276,9.7877344,3.6714714,2.2847917,7.8933333,3.4922656,12.2133333,3.4922656,3.3770703,0,6.647474-.7253385,9.7216146-2.1567969,5.5509115-2.5472135,9.9029167-7.3088021,11.9423958-13.0709375l10.8501302-29.9711979h29.9370573l10.9205469,29.9946615c1.0367969,2.8714844,2.5941146,5.4634635,4.6335937,7.7034635,2.0586719,2.2634635,4.5013281,4.0554688,7.2640104,5.3269531,3.0293229,1.44,6.4042448,2.2015885,9.7685156,2.2015885,2.7072135,0,5.3717448-.4757292,7.9146615-1.414401,5.7642708-2.1184115,10.3701563-6.3573437,12.9621354-11.9338542,2.5898698-5.574401,2.8608073-11.8272135.7594792-17.6021354l-5.156276-14.276276h57.7941406Z"/>
  <path fill="maroon" d="M393.590625,42.6666667H42.6666667c0,.0534766.0014193.1067578.0016927.1601953h-.0016927v221.5061589c.5550521,96.8453125.8325781,145.2669792.8325781,145.2669792,19.525-4.4980729,39.368099-13.7223958,38.0615885-34.6392188-1.3107682-20.9669271-3.9323177-47.5248698-14.3523437-90.219375,12.1598958,30.871875,16.3996354,67.4648438,20.1441016,90.515625,43.0314323-26.8842187,13.1547135-81.399375-5.0851302-122.6785937-7.9094792-1.7676042-14.9330208-4.6501823-21.070612-8.6457813,7.7792578,2.9226042,17.1852474,4.3679167,26.1749479,3.3990625,16.2544661-1.7515625,28.881901-16.1385677,20.2828646-30.1631901,38.5176042-35.5813281,58.9753646-83.5173568,66.0827865-131.2713021,14.2103385-5.4239063,25.5663932-13.2999089,32.410651-22.6360026,9.0158984,15.5960938,27.9497656,26.338776,49.851901,26.338776s40.8359896-10.7426823,49.851901-26.338776c6.8442708,9.3360938,18.2003385,17.2120964,32.410651,22.6360026,7.1073958,47.7539453,27.5651563,95.689974,66.0828125,131.2713021-8.5990625,14.0246224,4.0283594,28.4116276,20.2828646,30.1631901,8.9896615.9688542,18.3956771-.4764583,26.1748958-3.3990625-6.1376042,3.995599-13.1610938,6.8781771-21.0705729,8.6457813-18.2398437,41.2792187-48.1165625,95.794375-5.0851562,122.6785937,3.7444792-23.0507812,7.9842187-59.64375,20.1441146-90.515625-10.420026,42.6945052-13.0415885,69.2524479-14.3523437,90.219375-1.3065104,20.9168229,18.5365625,30.1411458,38.0615625,34.6392188,0,0,.2775521-48.4216667.8326042-145.2669792V42.6666667h-75.7427083ZM70.0563281,216.7741797c-1.9341406.0320312-3.8277214.3763281-8.0247656.4083464,16.7753646-16.9732812,36.4562109-53.0998568,47.6341016-95.9725-4.9271484,36.1505859-20.4173568,70.8678906-39.6093359,95.5641536ZM97.7427214,216.9863542c-2.4998568.0420313-3.6291797.1561458-9.0580078.1961719,25.476875-29.5426172,43.938737-68.2014714,61.6342057-124.1799349-10.1467708,50.3113542-27.741901,92.0289714-52.5761979,123.983763ZM414.2572917,216.9863542c-24.8343229-31.9547917-42.4294271-73.6724089-52.5761979-123.983763,17.6954688,55.9784635,36.1573177,94.6373177,61.6341667,124.1799349-5.4288021-.040026-6.558125-.1541406-9.0579687-.1961719ZM441.9436458,216.7741797c-19.1919271-24.696263-34.6821615-59.4135677-39.6093229-95.5641536,11.1779167,42.8726432,30.85875,78.9992188,47.6341146,95.9725-4.1970312-.0320182-6.090625-.3763151-8.0247917-.4083464Z"/>
  <path fill="#8b0000" d="M284.6307292,177.9400911c0,15.8151302-12.7916406,28.639987-28.6067188,28.6732292-15.8151562,0-28.64-12.7916406-28.6732292-28.6067708,0-7.6085286,2.9902604-14.8848177,8.3727083-20.2672786,5.3492708-5.3824609,12.658776-8.4059375,20.2340625-8.4059375,15.8151042,0,28.64,12.7916406,28.6731771,28.6067578ZM363.2079427,208.8061589c-3.5882813-2.3257552-7.9740104-3.1563802-12.1603125-2.2925391l-59.2070573,11.0971745c-2.7576562.2325781-5.5153385.5980469-8.4391667.9302995-9.6352604,1.2293229-19.30375,1.9602865-29.0054687,2.1596354-7.8078906-.0996615-15.5825-.6645052-23.2907031-1.7277083-2.5915625-.2658073-5.0170052-.5648047-7.5088802-.7973828l-62.7289063-11.7616797c-4.2195703-.7973828-8.6052604.1329036-12.1603125,2.5583333-7.4092057,5.0834245-9.2698307,15.1838542-4.2196094,22.5598177,2.4586589,3.521849,6.213112,5.9140625,10.4658854,6.6782292l58.3764323,10.997474,1.4286589.3322396c6.844362,1.6280469,9.1700911,2.1596354,8.8711068,10.6984635-.2326042,6.844375-.4983854,15.1173958-.9303125,23.656224-.4319531,8.5388281-.9967448,17.4099219-1.7609375,25.6165104-.3654688,4.551849-.9303125,9.0704427-1.7609375,13.5558333-.8970573,4.3856771-2.1927995,8.738151-3.7876172,12.9577604l-20.2340625,56.050625c-1.4619141,4.0534896-1.262526,8.505599.5648437,12.4261719,3.7876172,8.1069271,13.4561458,11.5955469,21.5630208,7.8078906,3.9205599-1.7941667,6.9440495-5.1166667,8.3726953-9.1701042l29.03875-80.2052604h-.1329427l3.2560677-5.7811719,3.2560677,5.9472917,29.1383594,80.0391406c1.461901,4.0534375,4.4521615,7.3759375,8.3727083,9.1701042,3.8873438,1.860599,8.3727344,2.0599479,12.426224.5648177,8.4059115-3.0898958,12.7251563-12.3929167,9.6684375-20.7988802l-19.8020833-54.8213281c-1.9603385-5.415651-3.2228646-9.9010417-4.5186458-14.319974-1.2957552-4.4189583-2.2593229-9.0039844-3.2560677-14.7519271-1.5615625-8.738151-3.0566927-18.273776-4.1863021-27.2445313-.9967448-7.674974-1.7277344-14.9844792-1.9934896-21.1311198-.3655208-8.4059375,2.5583073-8.9375521,8.4723958-9.9342969,1.4951302-.2325521,3.1563802-.4983854,5.0501823-.9302865l56.5822656-10.6320052c4.2195573-.7973958,7.9740104-3.2228385,10.3994271-6.7778906.0332292-.0664583.0996615-.1329167.1329167-.199375,5.0169792-7.4091927,3.0566927-17.5096094-4.352526-22.5265755h-.0001042Z"/>
</svg>
