<?xml version="1.0" encoding="utf-8"?>
<!-- Generator: Adobe Illustrator 24.0.1, SVG Export Plug-In . SVG Version: 6.00 Build 0)  -->
<svg version="1.1" xmlns="http://www.w3.org/2000/svg" xmlns:xlink="http://www.w3.org/1999/xlink" x="0px" y="0px" width="2000px"
	 height="1000px" viewBox="0 0 2000 1000" style="enable-background:new 0 0 2000 1000;" xml:space="preserve">
<g id="Light">
	<path style="fill:#FFFFFF;" d="M400,358.3h158.3V241.7H241.7v516.7h116.7v-200h200V441.7H400c-23,0-41.7-18.7-41.7-41.7
		C358.3,377,377,358.3,400,358.3z M641.7,241.7v516.7h116.7V600c0-23,18.7-41.7,41.7-41.7s41.7,18.7,41.7,41.7v158.3h116.7V241.7
		H641.7z M800,466.7c-36.8,0-66.7-29.9-66.7-66.7c0-36.8,29.9-66.7,66.7-66.7c36.8,0,66.7,29.9,66.7,66.7
		C866.7,436.8,836.8,466.7,800,466.7z M1241.7,241.7V400c0,23-18.6,41.7-41.7,41.7c-23,0-41.7-18.7-41.7-41.7V241.7h-116.7v516.7
		h141.1l175.6-175.6V241.7H1241.7z M1441.7,241.7v516.7h116.7V600c0-23,18.6-41.7,41.7-41.7s41.7,18.7,41.7,41.7v158.3h116.7V241.7
		H1441.7z M1600,466.7c-36.8,0-66.7-29.9-66.7-66.7c0-36.8,29.9-66.7,66.7-66.7c36.8,0,66.7,29.9,66.7,66.7
		C1666.7,436.8,1636.8,466.7,1600,466.7z M1441.7,241.7v516.7h116.7V600c0-23,18.6-41.7,41.7-41.7s41.7,18.7,41.7,41.7v158.3h116.7
		V241.7H1441.7z M1600,466.7c-36.8,0-66.7-29.9-66.7-66.7c0-36.8,29.9-66.7,66.7-66.7c36.8,0,66.7,29.9,66.7,66.7
		C1666.7,436.8,1636.8,466.7,1600,466.7z M1241.7,241.7V400c0,23-18.6,41.7-41.7,41.7c-23,0-41.7-18.7-41.7-41.7V241.7h-116.7v516.7
		h141.1l175.6-175.6V241.7H1241.7z M641.7,241.7v516.7h116.7V600c0-23,18.7-41.7,41.7-41.7s41.7,18.7,41.7,41.7v158.3h116.7V241.7
		H641.7z M800,466.7c-36.8,0-66.7-29.9-66.7-66.7c0-36.8,29.9-66.7,66.7-66.7c36.8,0,66.7,29.9,66.7,66.7
		C866.7,436.8,836.8,466.7,800,466.7z M400,358.3h158.3V241.7H241.7v516.7h116.7v-200h200V441.7H400c-23,0-41.7-18.7-41.7-41.7
		C358.3,377,377,358.3,400,358.3z M400,358.3h158.3V241.7H241.7v516.7h116.7v-200h200V441.7H400c-23,0-41.7-18.7-41.7-41.7
		C358.3,377,377,358.3,400,358.3z M641.7,241.7v516.7h116.7V600c0-23,18.7-41.7,41.7-41.7s41.7,18.7,41.7,41.7v158.3h116.7V241.7
		H641.7z M800,466.7c-36.8,0-66.7-29.9-66.7-66.7c0-36.8,29.9-66.7,66.7-66.7c36.8,0,66.7,29.9,66.7,66.7
		C866.7,436.8,836.8,466.7,800,466.7z M1241.7,241.7V400c0,23-18.6,41.7-41.7,41.7c-23,0-41.7-18.7-41.7-41.7V241.7h-116.7v516.7
		h141.1l175.6-175.6V241.7H1241.7z M1441.7,241.7v516.7h116.7V600c0-23,18.6-41.7,41.7-41.7s41.7,18.7,41.7,41.7v158.3h116.7V241.7
		H1441.7z M1600,466.7c-36.8,0-66.7-29.9-66.7-66.7c0-36.8,29.9-66.7,66.7-66.7c36.8,0,66.7,29.9,66.7,66.7
		C1666.7,436.8,1636.8,466.7,1600,466.7z M1441.7,241.7v516.7h116.7V600c0-23,18.6-41.7,41.7-41.7s41.7,18.7,41.7,41.7v158.3h116.7
		V241.7H1441.7z M1600,466.7c-36.8,0-66.7-29.9-66.7-66.7c0-36.8,29.9-66.7,66.7-66.7c36.8,0,66.7,29.9,66.7,66.7
		C1666.7,436.8,1636.8,466.7,1600,466.7z M1241.7,241.7V400c0,23-18.6,41.7-41.7,41.7c-23,0-41.7-18.7-41.7-41.7V241.7h-116.7v516.7
		h141.1l175.6-175.6V241.7H1241.7z M641.7,241.7v516.7h116.7V600c0-23,18.7-41.7,41.7-41.7s41.7,18.7,41.7,41.7v158.3h116.7V241.7
		H641.7z M800,466.7c-36.8,0-66.7-29.9-66.7-66.7c0-36.8,29.9-66.7,66.7-66.7c36.8,0,66.7,29.9,66.7,66.7
		C866.7,436.8,836.8,466.7,800,466.7z M400,358.3h158.3V241.7H241.7v516.7h116.7v-200h200V441.7H400c-23,0-41.7-18.7-41.7-41.7
		C358.3,377,377,358.3,400,358.3z M400,358.3h158.3V241.7H241.7v516.7h116.7v-200h200V441.7H400c-23,0-41.7-18.7-41.7-41.7
		C358.3,377,377,358.3,400,358.3z M641.7,241.7v516.7h116.7V600c0-23,18.7-41.7,41.7-41.7s41.7,18.7,41.7,41.7v158.3h116.7V241.7
		H641.7z M800,466.7c-36.8,0-66.7-29.9-66.7-66.7c0-36.8,29.9-66.7,66.7-66.7c36.8,0,66.7,29.9,66.7,66.7
		C866.7,436.8,836.8,466.7,800,466.7z M1241.7,241.7V400c0,23-18.6,41.7-41.7,41.7c-23,0-41.7-18.7-41.7-41.7V241.7h-116.7v516.7
		h141.1l175.6-175.6V241.7H1241.7z M1441.7,241.7v516.7h116.7V600c0-23,18.6-41.7,41.7-41.7s41.7,18.7,41.7,41.7v158.3h116.7V241.7
		H1441.7z M1600,466.7c-36.8,0-66.7-29.9-66.7-66.7c0-36.8,29.9-66.7,66.7-66.7c36.8,0,66.7,29.9,66.7,66.7
		C1666.7,436.8,1636.8,466.7,1600,466.7z M1441.7,241.7v516.7h116.7V600c0-23,18.6-41.7,41.7-41.7s41.7,18.7,41.7,41.7v158.3h116.7
		V241.7H1441.7z M1600,466.7c-36.8,0-66.7-29.9-66.7-66.7c0-36.8,29.9-66.7,66.7-66.7c36.8,0,66.7,29.9,66.7,66.7
		C1666.7,436.8,1636.8,466.7,1600,466.7z M1241.7,241.7V400c0,23-18.6,41.7-41.7,41.7c-23,0-41.7-18.7-41.7-41.7V241.7h-116.7v516.7
		h141.1l175.6-175.6V241.7H1241.7z M641.7,241.7v516.7h116.7V600c0-23,18.7-41.7,41.7-41.7s41.7,18.7,41.7,41.7v158.3h116.7V241.7
		H641.7z M800,466.7c-36.8,0-66.7-29.9-66.7-66.7c0-36.8,29.9-66.7,66.7-66.7c36.8,0,66.7,29.9,66.7,66.7
		C866.7,436.8,836.8,466.7,800,466.7z M400,358.3h158.3V241.7H241.7v516.7h116.7v-200h200V441.7H400c-23,0-41.7-18.7-41.7-41.7
		C358.3,377,377,358.3,400,358.3z M400,358.3h158.3V241.7H241.7v516.7h116.7v-200h200V441.7H400c-23,0-41.7-18.7-41.7-41.7
		C358.3,377,377,358.3,400,358.3z M641.7,241.7v516.7h116.7V600c0-23,18.7-41.7,41.7-41.7s41.7,18.7,41.7,41.7v158.3h116.7V241.7
		H641.7z M800,466.7c-36.8,0-66.7-29.9-66.7-66.7c0-36.8,29.9-66.7,66.7-66.7c36.8,0,66.7,29.9,66.7,66.7
		C866.7,436.8,836.8,466.7,800,466.7z M1241.7,241.7V400c0,23-18.6,41.7-41.7,41.7c-23,0-41.7-18.7-41.7-41.7V241.7h-116.7v516.7
		h141.1l175.6-175.6V241.7H1241.7z M1441.7,241.7v516.7h116.7V600c0-23,18.6-41.7,41.7-41.7s41.7,18.7,41.7,41.7v158.3h116.7V241.7
		H1441.7z M1600,466.7c-36.8,0-66.7-29.9-66.7-66.7c0-36.8,29.9-66.7,66.7-66.7c36.8,0,66.7,29.9,66.7,66.7
		C1666.7,436.8,1636.8,466.7,1600,466.7z M1441.7,241.7v516.7h116.7V600c0-23,18.6-41.7,41.7-41.7s41.7,18.7,41.7,41.7v158.3h116.7
		V241.7H1441.7z M1600,466.7c-36.8,0-66.7-29.9-66.7-66.7c0-36.8,29.9-66.7,66.7-66.7c36.8,0,66.7,29.9,66.7,66.7
		C1666.7,436.8,1636.8,466.7,1600,466.7z M1241.7,241.7V400c0,23-18.6,41.7-41.7,41.7c-23,0-41.7-18.7-41.7-41.7V241.7h-116.7v516.7
		h141.1l175.6-175.6V241.7H1241.7z M641.7,241.7v516.7h116.7V600c0-23,18.7-41.7,41.7-41.7s41.7,18.7,41.7,41.7v158.3h116.7V241.7
		H641.7z M800,466.7c-36.8,0-66.7-29.9-66.7-66.7c0-36.8,29.9-66.7,66.7-66.7c36.8,0,66.7,29.9,66.7,66.7
		C866.7,436.8,836.8,466.7,800,466.7z M400,358.3h158.3V241.7H241.7v516.7h116.7v-200h200V441.7H400c-23,0-41.7-18.7-41.7-41.7
		C358.3,377,377,358.3,400,358.3z M400,358.3h158.3V241.7H241.7v516.7h116.7v-200h200V441.7H400c-23,0-41.7-18.7-41.7-41.7
		C358.3,377,377,358.3,400,358.3z M641.7,241.7v516.7h116.7V600c0-23,18.7-41.7,41.7-41.7s41.7,18.7,41.7,41.7v158.3h116.7V241.7
		H641.7z M800,466.7c-36.8,0-66.7-29.9-66.7-66.7c0-36.8,29.9-66.7,66.7-66.7c36.8,0,66.7,29.9,66.7,66.7
		C866.7,436.8,836.8,466.7,800,466.7z M1241.7,241.7V400c0,23-18.6,41.7-41.7,41.7c-23,0-41.7-18.7-41.7-41.7V241.7h-116.7v516.7
		h141.1l175.6-175.6V241.7H1241.7z M1441.7,241.7v516.7h116.7V600c0-23,18.6-41.7,41.7-41.7s41.7,18.7,41.7,41.7v158.3h116.7V241.7
		H1441.7z M1600,466.7c-36.8,0-66.7-29.9-66.7-66.7c0-36.8,29.9-66.7,66.7-66.7c36.8,0,66.7,29.9,66.7,66.7
		C1666.7,436.8,1636.8,466.7,1600,466.7z M1441.7,241.7v516.7h116.7V600c0-23,18.6-41.7,41.7-41.7s41.7,18.7,41.7,41.7v158.3h116.7
		V241.7H1441.7z M1600,466.7c-36.8,0-66.7-29.9-66.7-66.7c0-36.8,29.9-66.7,66.7-66.7c36.8,0,66.7,29.9,66.7,66.7
		C1666.7,436.8,1636.8,466.7,1600,466.7z M1241.7,241.7V400c0,23-18.6,41.7-41.7,41.7c-23,0-41.7-18.7-41.7-41.7V241.7h-116.7v516.7
		h141.1l175.6-175.6V241.7H1241.7z M641.7,241.7v516.7h116.7V600c0-23,18.7-41.7,41.7-41.7s41.7,18.7,41.7,41.7v158.3h116.7V241.7
		H641.7z M800,466.7c-36.8,0-66.7-29.9-66.7-66.7c0-36.8,29.9-66.7,66.7-66.7c36.8,0,66.7,29.9,66.7,66.7
		C866.7,436.8,836.8,466.7,800,466.7z M400,358.3h158.3V241.7H241.7v516.7h116.7v-200h200V441.7H400c-23,0-41.7-18.7-41.7-41.7
		C358.3,377,377,358.3,400,358.3z M400,358.3h158.3V241.7H241.7v516.7h116.7v-200h200V441.7H400c-23,0-41.7-18.7-41.7-41.7
		C358.3,377,377,358.3,400,358.3z M641.7,241.7v516.7h116.7V600c0-23,18.7-41.7,41.7-41.7s41.7,18.7,41.7,41.7v158.3h116.7V241.7
		H641.7z M800,466.7c-36.8,0-66.7-29.9-66.7-66.7c0-36.8,29.9-66.7,66.7-66.7c36.8,0,66.7,29.9,66.7,66.7
		C866.7,436.8,836.8,466.7,800,466.7z M1241.7,241.7V400c0,23-18.6,41.7-41.7,41.7c-23,0-41.7-18.7-41.7-41.7V241.7h-116.7v516.7
		h141.1l175.6-175.6V241.7H1241.7z M1441.7,241.7v516.7h116.7V600c0-23,18.6-41.7,41.7-41.7s41.7,18.7,41.7,41.7v158.3h116.7V241.7
		H1441.7z M1600,466.7c-36.8,0-66.7-29.9-66.7-66.7c0-36.8,29.9-66.7,66.7-66.7c36.8,0,66.7,29.9,66.7,66.7
		C1666.7,436.8,1636.8,466.7,1600,466.7z M1441.7,241.7v516.7h116.7V600c0-23,18.6-41.7,41.7-41.7s41.7,18.7,41.7,41.7v158.3h116.7
		V241.7H1441.7z M1600,466.7c-36.8,0-66.7-29.9-66.7-66.7c0-36.8,29.9-66.7,66.7-66.7c36.8,0,66.7,29.9,66.7,66.7
		C1666.7,436.8,1636.8,466.7,1600,466.7z M1241.7,241.7V400c0,23-18.6,41.7-41.7,41.7c-23,0-41.7-18.7-41.7-41.7V241.7h-116.7v516.7
		h141.1l175.6-175.6V241.7H1241.7z M641.7,241.7v516.7h116.7V600c0-23,18.7-41.7,41.7-41.7s41.7,18.7,41.7,41.7v158.3h116.7V241.7
		H641.7z M800,466.7c-36.8,0-66.7-29.9-66.7-66.7c0-36.8,29.9-66.7,66.7-66.7c36.8,0,66.7,29.9,66.7,66.7
		C866.7,436.8,836.8,466.7,800,466.7z M400,358.3h158.3V241.7H241.7v516.7h116.7v-200h200V441.7H400c-23,0-41.7-18.7-41.7-41.7
		C358.3,377,377,358.3,400,358.3z M400,358.3h158.3V241.7H241.7v516.7h116.7v-200h200V441.7H400c-23,0-41.7-18.7-41.7-41.7
		C358.3,377,377,358.3,400,358.3z M641.7,241.7v516.7h116.7V600c0-23,18.7-41.7,41.7-41.7s41.7,18.7,41.7,41.7v158.3h116.7V241.7
		H641.7z M800,466.7c-36.8,0-66.7-29.9-66.7-66.7c0-36.8,29.9-66.7,66.7-66.7c36.8,0,66.7,29.9,66.7,66.7
		C866.7,436.8,836.8,466.7,800,466.7z M1241.7,241.7V400c0,23-18.6,41.7-41.7,41.7c-23,0-41.7-18.7-41.7-41.7V241.7h-116.7v516.7
		h141.1l175.6-175.6V241.7H1241.7z M1441.7,241.7v516.7h116.7V600c0-23,18.6-41.7,41.7-41.7s41.7,18.7,41.7,41.7v158.3h116.7V241.7
		H1441.7z M1600,466.7c-36.8,0-66.7-29.9-66.7-66.7c0-36.8,29.9-66.7,66.7-66.7c36.8,0,66.7,29.9,66.7,66.7
		C1666.7,436.8,1636.8,466.7,1600,466.7z M1441.7,241.7v516.7h116.7V600c0-23,18.6-41.7,41.7-41.7s41.7,18.7,41.7,41.7v158.3h116.7
		V241.7H1441.7z M1600,466.7c-36.8,0-66.7-29.9-66.7-66.7c0-36.8,29.9-66.7,66.7-66.7c36.8,0,66.7,29.9,66.7,66.7
		C1666.7,436.8,1636.8,466.7,1600,466.7z M1241.7,241.7V400c0,23-18.6,41.7-41.7,41.7c-23,0-41.7-18.7-41.7-41.7V241.7h-116.7v516.7
		h141.1l175.6-175.6V241.7H1241.7z M641.7,241.7v516.7h116.7V600c0-23,18.7-41.7,41.7-41.7s41.7,18.7,41.7,41.7v158.3h116.7V241.7
		H641.7z M800,466.7c-36.8,0-66.7-29.9-66.7-66.7c0-36.8,29.9-66.7,66.7-66.7c36.8,0,66.7,29.9,66.7,66.7
		C866.7,436.8,836.8,466.7,800,466.7z M400,358.3h158.3V241.7H241.7v516.7h116.7v-200h200V441.7H400c-23,0-41.7-18.7-41.7-41.7
		C358.3,377,377,358.3,400,358.3z M400,358.3h158.3V241.7H241.7v516.7h116.7v-200h200V441.7H400c-23,0-41.7-18.7-41.7-41.7
		C358.3,377,377,358.3,400,358.3z M641.7,241.7v516.7h116.7V600c0-23,18.7-41.7,41.7-41.7s41.7,18.7,41.7,41.7v158.3h116.7V241.7
		H641.7z M800,466.7c-36.8,0-66.7-29.9-66.7-66.7c0-36.8,29.9-66.7,66.7-66.7c36.8,0,66.7,29.9,66.7,66.7
		C866.7,436.8,836.8,466.7,800,466.7z M1241.7,241.7V400c0,23-18.6,41.7-41.7,41.7c-23,0-41.7-18.7-41.7-41.7V241.7h-116.7v516.7
		h141.1l175.6-175.6V241.7H1241.7z M1441.7,241.7v516.7h116.7V600c0-23,18.6-41.7,41.7-41.7s41.7,18.7,41.7,41.7v158.3h116.7V241.7
		H1441.7z M1600,466.7c-36.8,0-66.7-29.9-66.7-66.7c0-36.8,29.9-66.7,66.7-66.7c36.8,0,66.7,29.9,66.7,66.7
		C1666.7,436.8,1636.8,466.7,1600,466.7z M1441.7,241.7v516.7h116.7V600c0-23,18.6-41.7,41.7-41.7s41.7,18.7,41.7,41.7v158.3h116.7
		V241.7H1441.7z M1600,466.7c-36.8,0-66.7-29.9-66.7-66.7c0-36.8,29.9-66.7,66.7-66.7c36.8,0,66.7,29.9,66.7,66.7
		C1666.7,436.8,1636.8,466.7,1600,466.7z M1241.7,241.7V400c0,23-18.6,41.7-41.7,41.7c-23,0-41.7-18.7-41.7-41.7V241.7h-116.7v516.7
		h141.1l175.6-175.6V241.7H1241.7z M641.7,241.7v516.7h116.7V600c0-23,18.7-41.7,41.7-41.7s41.7,18.7,41.7,41.7v158.3h116.7V241.7
		H641.7z M800,466.7c-36.8,0-66.7-29.9-66.7-66.7c0-36.8,29.9-66.7,66.7-66.7c36.8,0,66.7,29.9,66.7,66.7
		C866.7,436.8,836.8,466.7,800,466.7z M400,358.3h158.3V241.7H241.7v516.7h116.7v-200h200V441.7H400c-23,0-41.7-18.7-41.7-41.7
		C358.3,377,377,358.3,400,358.3z M400,358.3h158.3V241.7H241.7v516.7h116.7v-200h200V441.7H400c-23,0-41.7-18.7-41.7-41.7
		C358.3,377,377,358.3,400,358.3z M641.7,241.7v516.7h116.7V600c0-23,18.7-41.7,41.7-41.7s41.7,18.7,41.7,41.7v158.3h116.7V241.7
		H641.7z M800,466.7c-36.8,0-66.7-29.9-66.7-66.7c0-36.8,29.9-66.7,66.7-66.7c36.8,0,66.7,29.9,66.7,66.7
		C866.7,436.8,836.8,466.7,800,466.7z M1241.7,241.7V400c0,23-18.6,41.7-41.7,41.7c-23,0-41.7-18.7-41.7-41.7V241.7h-116.7v516.7
		h141.1l175.6-175.6V241.7H1241.7z M1441.7,241.7v516.7h116.7V600c0-23,18.6-41.7,41.7-41.7s41.7,18.7,41.7,41.7v158.3h116.7V241.7
		H1441.7z M1600,466.7c-36.8,0-66.7-29.9-66.7-66.7c0-36.8,29.9-66.7,66.7-66.7c36.8,0,66.7,29.9,66.7,66.7
		C1666.7,436.8,1636.8,466.7,1600,466.7z M1441.7,241.7v516.7h116.7V600c0-23,18.6-41.7,41.7-41.7s41.7,18.7,41.7,41.7v158.3h116.7
		V241.7H1441.7z M1600,466.7c-36.8,0-66.7-29.9-66.7-66.7c0-36.8,29.9-66.7,66.7-66.7c36.8,0,66.7,29.9,66.7,66.7
		C1666.7,436.8,1636.8,466.7,1600,466.7z M1241.7,241.7V400c0,23-18.6,41.7-41.7,41.7c-23,0-41.7-18.7-41.7-41.7V241.7h-116.7v516.7
		h141.1l175.6-175.6V241.7H1241.7z M641.7,241.7v516.7h116.7V600c0-23,18.7-41.7,41.7-41.7s41.7,18.7,41.7,41.7v158.3h116.7V241.7
		H641.7z M800,466.7c-36.8,0-66.7-29.9-66.7-66.7c0-36.8,29.9-66.7,66.7-66.7c36.8,0,66.7,29.9,66.7,66.7
		C866.7,436.8,836.8,466.7,800,466.7z M400,358.3h158.3V241.7H241.7v516.7h116.7v-200h200V441.7H400c-23,0-41.7-18.7-41.7-41.7
		C358.3,377,377,358.3,400,358.3z M400,358.3h158.3V241.7H241.7v516.7h116.7v-200h200V441.7H400c-23,0-41.7-18.7-41.7-41.7
		C358.3,377,377,358.3,400,358.3z M641.7,241.7v516.7h116.7V600c0-23,18.7-41.7,41.7-41.7s41.7,18.7,41.7,41.7v158.3h116.7V241.7
		H641.7z M800,466.7c-36.8,0-66.7-29.9-66.7-66.7c0-36.8,29.9-66.7,66.7-66.7c36.8,0,66.7,29.9,66.7,66.7
		C866.7,436.8,836.8,466.7,800,466.7z M1241.7,241.7V400c0,23-18.6,41.7-41.7,41.7c-23,0-41.7-18.7-41.7-41.7V241.7h-116.7v516.7
		h141.1l175.6-175.6V241.7H1241.7z M1441.7,241.7v516.7h116.7V600c0-23,18.6-41.7,41.7-41.7s41.7,18.7,41.7,41.7v158.3h116.7V241.7
		H1441.7z M1600,466.7c-36.8,0-66.7-29.9-66.7-66.7c0-36.8,29.9-66.7,66.7-66.7c36.8,0,66.7,29.9,66.7,66.7
		C1666.7,436.8,1636.8,466.7,1600,466.7z M1441.7,241.7v516.7h116.7V600c0-23,18.6-41.7,41.7-41.7s41.7,18.7,41.7,41.7v158.3h116.7
		V241.7H1441.7z M1600,466.7c-36.8,0-66.7-29.9-66.7-66.7c0-36.8,29.9-66.7,66.7-66.7c36.8,0,66.7,29.9,66.7,66.7
		C1666.7,436.8,1636.8,466.7,1600,466.7z M1241.7,400c0,23-18.6,41.7-41.7,41.7c-23,0-41.7-18.7-41.7-41.7V241.7h-116.7v516.7h141.1
		l175.6-175.6V241.7h-116.7V400z M641.7,758.3h116.7V600c0-23,18.7-41.7,41.7-41.7s41.7,18.7,41.7,41.7v158.3h116.7V241.7H641.7
		V758.3z M800,333.3c36.8,0,66.7,29.9,66.7,66.7c0,36.8-29.9,66.7-66.7,66.7c-36.8,0-66.7-29.9-66.7-66.7
		C733.3,363.2,763.2,333.3,800,333.3z M241.7,758.3h116.7v-200h200V441.7H400c-23,0-41.7-18.7-41.7-41.7c0-23,18.7-41.7,41.7-41.7
		h158.3V241.7H241.7V758.3z M100,100v800h1141.4l58.6-58.5V900h600V100H100z M1841.7,841.7h-483.3V700.6l-141.1,141.1H558.3v-200
		H441.7v200H158.3V158.3h1683.3V841.7z M1558.3,600c0-23,18.6-41.7,41.7-41.7s41.7,18.7,41.7,41.7v158.3h116.7V241.7h-316.7v516.7
		h116.7V600z M1533.3,400c0-36.8,29.9-66.7,66.7-66.7c36.8,0,66.7,29.9,66.7,66.7c0,36.8-29.9,66.7-66.7,66.7
		C1563.2,466.7,1533.3,436.8,1533.3,400z M1358.3,582.7V241.7h-116.7V400c0,23-18.6,41.7-41.7,41.7c-23,0-41.7-18.7-41.7-41.7V241.7
		h-116.7v516.7h141.1L1358.3,582.7z M758.3,600c0-23,18.7-41.7,41.7-41.7s41.7,18.7,41.7,41.7v158.3h116.7V241.7H641.7v516.7h116.7
		V600z M733.3,400c0-36.8,29.9-66.7,66.7-66.7c36.8,0,66.7,29.9,66.7,66.7c0,36.8-29.9,66.7-66.7,66.7
		C763.2,466.7,733.3,436.8,733.3,400z M358.3,558.3h200V441.7H400c-23,0-41.7-18.7-41.7-41.7c0-23,18.7-41.7,41.7-41.7h158.3V241.7
		H241.7v516.7h116.7V558.3z M400,358.3h158.3V241.7H241.7v516.7h116.7v-200h200V441.7H400c-23,0-41.7-18.7-41.7-41.7
		C358.3,377,377,358.3,400,358.3z M641.7,241.7v516.7h116.7V600c0-23,18.7-41.7,41.7-41.7s41.7,18.7,41.7,41.7v158.3h116.7V241.7
		H641.7z M800,466.7c-36.8,0-66.7-29.9-66.7-66.7c0-36.8,29.9-66.7,66.7-66.7c36.8,0,66.7,29.9,66.7,66.7
		C866.7,436.8,836.8,466.7,800,466.7z M1241.7,241.7V400c0,23-18.6,41.7-41.7,41.7c-23,0-41.7-18.7-41.7-41.7V241.7h-116.7v516.7
		h141.1l175.6-175.6V241.7H1241.7z M1441.7,241.7v516.7h116.7V600c0-23,18.6-41.7,41.7-41.7s41.7,18.7,41.7,41.7v158.3h116.7V241.7
		H1441.7z M1600,466.7c-36.8,0-66.7-29.9-66.7-66.7c0-36.8,29.9-66.7,66.7-66.7c36.8,0,66.7,29.9,66.7,66.7
		C1666.7,436.8,1636.8,466.7,1600,466.7z M1441.7,241.7v516.7h116.7V600c0-23,18.6-41.7,41.7-41.7s41.7,18.7,41.7,41.7v158.3h116.7
		V241.7H1441.7z M1600,466.7c-36.8,0-66.7-29.9-66.7-66.7c0-36.8,29.9-66.7,66.7-66.7c36.8,0,66.7,29.9,66.7,66.7
		C1666.7,436.8,1636.8,466.7,1600,466.7z M1241.7,241.7V400c0,23-18.6,41.7-41.7,41.7c-23,0-41.7-18.7-41.7-41.7V241.7h-116.7v516.7
		h141.1l175.6-175.6V241.7H1241.7z M641.7,241.7v516.7h116.7V600c0-23,18.7-41.7,41.7-41.7s41.7,18.7,41.7,41.7v158.3h116.7V241.7
		H641.7z M800,466.7c-36.8,0-66.7-29.9-66.7-66.7c0-36.8,29.9-66.7,66.7-66.7c36.8,0,66.7,29.9,66.7,66.7
		C866.7,436.8,836.8,466.7,800,466.7z M400,358.3h158.3V241.7H241.7v516.7h116.7v-200h200V441.7H400c-23,0-41.7-18.7-41.7-41.7
		C358.3,377,377,358.3,400,358.3z M400,358.3h158.3V241.7H241.7v516.7h116.7v-200h200V441.7H400c-23,0-41.7-18.7-41.7-41.7
		C358.3,377,377,358.3,400,358.3z M641.7,241.7v516.7h116.7V600c0-23,18.7-41.7,41.7-41.7s41.7,18.7,41.7,41.7v158.3h116.7V241.7
		H641.7z M800,466.7c-36.8,0-66.7-29.9-66.7-66.7c0-36.8,29.9-66.7,66.7-66.7c36.8,0,66.7,29.9,66.7,66.7
		C866.7,436.8,836.8,466.7,800,466.7z M1241.7,241.7V400c0,23-18.6,41.7-41.7,41.7c-23,0-41.7-18.7-41.7-41.7V241.7h-116.7v516.7
		h141.1l175.6-175.6V241.7H1241.7z M1441.7,241.7v516.7h116.7V600c0-23,18.6-41.7,41.7-41.7s41.7,18.7,41.7,41.7v158.3h116.7V241.7
		H1441.7z M1600,466.7c-36.8,0-66.7-29.9-66.7-66.7c0-36.8,29.9-66.7,66.7-66.7c36.8,0,66.7,29.9,66.7,66.7
		C1666.7,436.8,1636.8,466.7,1600,466.7z M1441.7,241.7v516.7h116.7V600c0-23,18.6-41.7,41.7-41.7s41.7,18.7,41.7,41.7v158.3h116.7
		V241.7H1441.7z M1600,466.7c-36.8,0-66.7-29.9-66.7-66.7c0-36.8,29.9-66.7,66.7-66.7c36.8,0,66.7,29.9,66.7,66.7
		C1666.7,436.8,1636.8,466.7,1600,466.7z M1241.7,241.7V400c0,23-18.6,41.7-41.7,41.7c-23,0-41.7-18.7-41.7-41.7V241.7h-116.7v516.7
		h141.1l175.6-175.6V241.7H1241.7z M641.7,241.7v516.7h116.7V600c0-23,18.7-41.7,41.7-41.7s41.7,18.7,41.7,41.7v158.3h116.7V241.7
		H641.7z M800,466.7c-36.8,0-66.7-29.9-66.7-66.7c0-36.8,29.9-66.7,66.7-66.7c36.8,0,66.7,29.9,66.7,66.7
		C866.7,436.8,836.8,466.7,800,466.7z M400,358.3h158.3V241.7H241.7v516.7h116.7v-200h200V441.7H400c-23,0-41.7-18.7-41.7-41.7
		C358.3,377,377,358.3,400,358.3z M400,358.3h158.3V241.7H241.7v516.7h116.7v-200h200V441.7H400c-23,0-41.7-18.7-41.7-41.7
		C358.3,377,377,358.3,400,358.3z M641.7,241.7v516.7h116.7V600c0-23,18.7-41.7,41.7-41.7s41.7,18.7,41.7,41.7v158.3h116.7V241.7
		H641.7z M800,466.7c-36.8,0-66.7-29.9-66.7-66.7c0-36.8,29.9-66.7,66.7-66.7c36.8,0,66.7,29.9,66.7,66.7
		C866.7,436.8,836.8,466.7,800,466.7z M1241.7,241.7V400c0,23-18.6,41.7-41.7,41.7c-23,0-41.7-18.7-41.7-41.7V241.7h-116.7v516.7
		h141.1l175.6-175.6V241.7H1241.7z M1441.7,241.7v516.7h116.7V600c0-23,18.6-41.7,41.7-41.7s41.7,18.7,41.7,41.7v158.3h116.7V241.7
		H1441.7z M1600,466.7c-36.8,0-66.7-29.9-66.7-66.7c0-36.8,29.9-66.7,66.7-66.7c36.8,0,66.7,29.9,66.7,66.7
		C1666.7,436.8,1636.8,466.7,1600,466.7z M1441.7,241.7v516.7h116.7V600c0-23,18.6-41.7,41.7-41.7s41.7,18.7,41.7,41.7v158.3h116.7
		V241.7H1441.7z M1600,466.7c-36.8,0-66.7-29.9-66.7-66.7c0-36.8,29.9-66.7,66.7-66.7c36.8,0,66.7,29.9,66.7,66.7
		C1666.7,436.8,1636.8,466.7,1600,466.7z M1241.7,241.7V400c0,23-18.6,41.7-41.7,41.7c-23,0-41.7-18.7-41.7-41.7V241.7h-116.7v516.7
		h141.1l175.6-175.6V241.7H1241.7z M641.7,241.7v516.7h116.7V600c0-23,18.7-41.7,41.7-41.7s41.7,18.7,41.7,41.7v158.3h116.7V241.7
		H641.7z M800,466.7c-36.8,0-66.7-29.9-66.7-66.7c0-36.8,29.9-66.7,66.7-66.7c36.8,0,66.7,29.9,66.7,66.7
		C866.7,436.8,836.8,466.7,800,466.7z M400,358.3h158.3V241.7H241.7v516.7h116.7v-200h200V441.7H400c-23,0-41.7-18.7-41.7-41.7
		C358.3,377,377,358.3,400,358.3z M400,358.3h158.3V241.7H241.7v516.7h116.7v-200h200V441.7H400c-23,0-41.7-18.7-41.7-41.7
		C358.3,377,377,358.3,400,358.3z M641.7,241.7v516.7h116.7V600c0-23,18.7-41.7,41.7-41.7s41.7,18.7,41.7,41.7v158.3h116.7V241.7
		H641.7z M800,466.7c-36.8,0-66.7-29.9-66.7-66.7c0-36.8,29.9-66.7,66.7-66.7c36.8,0,66.7,29.9,66.7,66.7
		C866.7,436.8,836.8,466.7,800,466.7z M1241.7,241.7V400c0,23-18.6,41.7-41.7,41.7c-23,0-41.7-18.7-41.7-41.7V241.7h-116.7v516.7
		h141.1l175.6-175.6V241.7H1241.7z M1441.7,241.7v516.7h116.7V600c0-23,18.6-41.7,41.7-41.7s41.7,18.7,41.7,41.7v158.3h116.7V241.7
		H1441.7z M1600,466.7c-36.8,0-66.7-29.9-66.7-66.7c0-36.8,29.9-66.7,66.7-66.7c36.8,0,66.7,29.9,66.7,66.7
		C1666.7,436.8,1636.8,466.7,1600,466.7z M1441.7,241.7v516.7h116.7V600c0-23,18.6-41.7,41.7-41.7s41.7,18.7,41.7,41.7v158.3h116.7
		V241.7H1441.7z M1600,466.7c-36.8,0-66.7-29.9-66.7-66.7c0-36.8,29.9-66.7,66.7-66.7c36.8,0,66.7,29.9,66.7,66.7
		C1666.7,436.8,1636.8,466.7,1600,466.7z M1241.7,241.7V400c0,23-18.6,41.7-41.7,41.7c-23,0-41.7-18.7-41.7-41.7V241.7h-116.7v516.7
		h141.1l175.6-175.6V241.7H1241.7z M641.7,241.7v516.7h116.7V600c0-23,18.7-41.7,41.7-41.7s41.7,18.7,41.7,41.7v158.3h116.7V241.7
		H641.7z M800,466.7c-36.8,0-66.7-29.9-66.7-66.7c0-36.8,29.9-66.7,66.7-66.7c36.8,0,66.7,29.9,66.7,66.7
		C866.7,436.8,836.8,466.7,800,466.7z M400,358.3h158.3V241.7H241.7v516.7h116.7v-200h200V441.7H400c-23,0-41.7-18.7-41.7-41.7
		C358.3,377,377,358.3,400,358.3z M400,358.3h158.3V241.7H241.7v516.7h116.7v-200h200V441.7H400c-23,0-41.7-18.7-41.7-41.7
		C358.3,377,377,358.3,400,358.3z M641.7,241.7v516.7h116.7V600c0-23,18.7-41.7,41.7-41.7s41.7,18.7,41.7,41.7v158.3h116.7V241.7
		H641.7z M800,466.7c-36.8,0-66.7-29.9-66.7-66.7c0-36.8,29.9-66.7,66.7-66.7c36.8,0,66.7,29.9,66.7,66.7
		C866.7,436.8,836.8,466.7,800,466.7z M1241.7,241.7V400c0,23-18.6,41.7-41.7,41.7c-23,0-41.7-18.7-41.7-41.7V241.7h-116.7v516.7
		h141.1l175.6-175.6V241.7H1241.7z M1441.7,241.7v516.7h116.7V600c0-23,18.6-41.7,41.7-41.7s41.7,18.7,41.7,41.7v158.3h116.7V241.7
		H1441.7z M1600,466.7c-36.8,0-66.7-29.9-66.7-66.7c0-36.8,29.9-66.7,66.7-66.7c36.8,0,66.7,29.9,66.7,66.7
		C1666.7,436.8,1636.8,466.7,1600,466.7z M1441.7,241.7v516.7h116.7V600c0-23,18.6-41.7,41.7-41.7s41.7,18.7,41.7,41.7v158.3h116.7
		V241.7H1441.7z M1600,466.7c-36.8,0-66.7-29.9-66.7-66.7c0-36.8,29.9-66.7,66.7-66.7c36.8,0,66.7,29.9,66.7,66.7
		C1666.7,436.8,1636.8,466.7,1600,466.7z M1241.7,241.7V400c0,23-18.6,41.7-41.7,41.7c-23,0-41.7-18.7-41.7-41.7V241.7h-116.7v516.7
		h141.1l175.6-175.6V241.7H1241.7z M641.7,241.7v516.7h116.7V600c0-23,18.7-41.7,41.7-41.7s41.7,18.7,41.7,41.7v158.3h116.7V241.7
		H641.7z M800,466.7c-36.8,0-66.7-29.9-66.7-66.7c0-36.8,29.9-66.7,66.7-66.7c36.8,0,66.7,29.9,66.7,66.7
		C866.7,436.8,836.8,466.7,800,466.7z M400,358.3h158.3V241.7H241.7v516.7h116.7v-200h200V441.7H400c-23,0-41.7-18.7-41.7-41.7
		C358.3,377,377,358.3,400,358.3z M400,358.3h158.3V241.7H241.7v516.7h116.7v-200h200V441.7H400c-23,0-41.7-18.7-41.7-41.7
		C358.3,377,377,358.3,400,358.3z M641.7,241.7v516.7h116.7V600c0-23,18.7-41.7,41.7-41.7s41.7,18.7,41.7,41.7v158.3h116.7V241.7
		H641.7z M800,466.7c-36.8,0-66.7-29.9-66.7-66.7c0-36.8,29.9-66.7,66.7-66.7c36.8,0,66.7,29.9,66.7,66.7
		C866.7,436.8,836.8,466.7,800,466.7z M1241.7,241.7V400c0,23-18.6,41.7-41.7,41.7c-23,0-41.7-18.7-41.7-41.7V241.7h-116.7v516.7
		h141.1l175.6-175.6V241.7H1241.7z M1441.7,241.7v516.7h116.7V600c0-23,18.6-41.7,41.7-41.7s41.7,18.7,41.7,41.7v158.3h116.7V241.7
		H1441.7z M1600,466.7c-36.8,0-66.7-29.9-66.7-66.7c0-36.8,29.9-66.7,66.7-66.7c36.8,0,66.7,29.9,66.7,66.7
		C1666.7,436.8,1636.8,466.7,1600,466.7z M1441.7,241.7v516.7h116.7V600c0-23,18.6-41.7,41.7-41.7s41.7,18.7,41.7,41.7v158.3h116.7
		V241.7H1441.7z M1600,466.7c-36.8,0-66.7-29.9-66.7-66.7c0-36.8,29.9-66.7,66.7-66.7c36.8,0,66.7,29.9,66.7,66.7
		C1666.7,436.8,1636.8,466.7,1600,466.7z M1241.7,241.7V400c0,23-18.6,41.7-41.7,41.7c-23,0-41.7-18.7-41.7-41.7V241.7h-116.7v516.7
		h141.1l175.6-175.6V241.7H1241.7z M641.7,241.7v516.7h116.7V600c0-23,18.7-41.7,41.7-41.7s41.7,18.7,41.7,41.7v158.3h116.7V241.7
		H641.7z M800,466.7c-36.8,0-66.7-29.9-66.7-66.7c0-36.8,29.9-66.7,66.7-66.7c36.8,0,66.7,29.9,66.7,66.7
		C866.7,436.8,836.8,466.7,800,466.7z M400,358.3h158.3V241.7H241.7v516.7h116.7v-200h200V441.7H400c-23,0-41.7-18.7-41.7-41.7
		C358.3,377,377,358.3,400,358.3z M400,358.3h158.3V241.7H241.7v516.7h116.7v-200h200V441.7H400c-23,0-41.7-18.7-41.7-41.7
		C358.3,377,377,358.3,400,358.3z M641.7,241.7v516.7h116.7V600c0-23,18.7-41.7,41.7-41.7s41.7,18.7,41.7,41.7v158.3h116.7V241.7
		H641.7z M800,466.7c-36.8,0-66.7-29.9-66.7-66.7c0-36.8,29.9-66.7,66.7-66.7c36.8,0,66.7,29.9,66.7,66.7
		C866.7,436.8,836.8,466.7,800,466.7z M1241.7,241.7V400c0,23-18.6,41.7-41.7,41.7c-23,0-41.7-18.7-41.7-41.7V241.7h-116.7v516.7
		h141.1l175.6-175.6V241.7H1241.7z M1441.7,241.7v516.7h116.7V600c0-23,18.6-41.7,41.7-41.7s41.7,18.7,41.7,41.7v158.3h116.7V241.7
		H1441.7z M1600,466.7c-36.8,0-66.7-29.9-66.7-66.7c0-36.8,29.9-66.7,66.7-66.7c36.8,0,66.7,29.9,66.7,66.7
		C1666.7,436.8,1636.8,466.7,1600,466.7z M1441.7,241.7v516.7h116.7V600c0-23,18.6-41.7,41.7-41.7s41.7,18.7,41.7,41.7v158.3h116.7
		V241.7H1441.7z M1600,466.7c-36.8,0-66.7-29.9-66.7-66.7c0-36.8,29.9-66.7,66.7-66.7c36.8,0,66.7,29.9,66.7,66.7
		C1666.7,436.8,1636.8,466.7,1600,466.7z M1241.7,241.7V400c0,23-18.6,41.7-41.7,41.7c-23,0-41.7-18.7-41.7-41.7V241.7h-116.7v516.7
		h141.1l175.6-175.6V241.7H1241.7z M641.7,241.7v516.7h116.7V600c0-23,18.7-41.7,41.7-41.7s41.7,18.7,41.7,41.7v158.3h116.7V241.7
		H641.7z M800,466.7c-36.8,0-66.7-29.9-66.7-66.7c0-36.8,29.9-66.7,66.7-66.7c36.8,0,66.7,29.9,66.7,66.7
		C866.7,436.8,836.8,466.7,800,466.7z M400,358.3h158.3V241.7H241.7v516.7h116.7v-200h200V441.7H400c-23,0-41.7-18.7-41.7-41.7
		C358.3,377,377,358.3,400,358.3z M400,358.3h158.3V241.7H241.7v516.7h116.7v-200h200V441.7H400c-23,0-41.7-18.7-41.7-41.7
		C358.3,377,377,358.3,400,358.3z M641.7,241.7v516.7h116.7V600c0-23,18.7-41.7,41.7-41.7s41.7,18.7,41.7,41.7v158.3h116.7V241.7
		H641.7z M800,466.7c-36.8,0-66.7-29.9-66.7-66.7c0-36.8,29.9-66.7,66.7-66.7c36.8,0,66.7,29.9,66.7,66.7
		C866.7,436.8,836.8,466.7,800,466.7z M1241.7,241.7V400c0,23-18.6,41.7-41.7,41.7c-23,0-41.7-18.7-41.7-41.7V241.7h-116.7v516.7
		h141.1l175.6-175.6V241.7H1241.7z M1441.7,241.7v516.7h116.7V600c0-23,18.6-41.7,41.7-41.7s41.7,18.7,41.7,41.7v158.3h116.7V241.7
		H1441.7z M1600,466.7c-36.8,0-66.7-29.9-66.7-66.7c0-36.8,29.9-66.7,66.7-66.7c36.8,0,66.7,29.9,66.7,66.7
		C1666.7,436.8,1636.8,466.7,1600,466.7z M1441.7,241.7v516.7h116.7V600c0-23,18.6-41.7,41.7-41.7s41.7,18.7,41.7,41.7v158.3h116.7
		V241.7H1441.7z M1600,466.7c-36.8,0-66.7-29.9-66.7-66.7c0-36.8,29.9-66.7,66.7-66.7c36.8,0,66.7,29.9,66.7,66.7
		C1666.7,436.8,1636.8,466.7,1600,466.7z M1241.7,241.7V400c0,23-18.6,41.7-41.7,41.7c-23,0-41.7-18.7-41.7-41.7V241.7h-116.7v516.7
		h141.1l175.6-175.6V241.7H1241.7z M641.7,241.7v516.7h116.7V600c0-23,18.7-41.7,41.7-41.7s41.7,18.7,41.7,41.7v158.3h116.7V241.7
		H641.7z M800,466.7c-36.8,0-66.7-29.9-66.7-66.7c0-36.8,29.9-66.7,66.7-66.7c36.8,0,66.7,29.9,66.7,66.7
		C866.7,436.8,836.8,466.7,800,466.7z M400,358.3h158.3V241.7H241.7v516.7h116.7v-200h200V441.7H400c-23,0-41.7-18.7-41.7-41.7
		C358.3,377,377,358.3,400,358.3z M400,358.3h158.3V241.7H241.7v516.7h116.7v-200h200V441.7H400c-23,0-41.7-18.7-41.7-41.7
		C358.3,377,377,358.3,400,358.3z M641.7,241.7v516.7h116.7V600c0-23,18.7-41.7,41.7-41.7s41.7,18.7,41.7,41.7v158.3h116.7V241.7
		H641.7z M800,466.7c-36.8,0-66.7-29.9-66.7-66.7c0-36.8,29.9-66.7,66.7-66.7c36.8,0,66.7,29.9,66.7,66.7
		C866.7,436.8,836.8,466.7,800,466.7z M1241.7,241.7V400c0,23-18.6,41.7-41.7,41.7c-23,0-41.7-18.7-41.7-41.7V241.7h-116.7v516.7
		h141.1l175.6-175.6V241.7H1241.7z M1441.7,241.7v516.7h116.7V600c0-23,18.6-41.7,41.7-41.7s41.7,18.7,41.7,41.7v158.3h116.7V241.7
		H1441.7z M1600,466.7c-36.8,0-66.7-29.9-66.7-66.7c0-36.8,29.9-66.7,66.7-66.7c36.8,0,66.7,29.9,66.7,66.7
		C1666.7,436.8,1636.8,466.7,1600,466.7z M1441.7,241.7v516.7h116.7V600c0-23,18.6-41.7,41.7-41.7s41.7,18.7,41.7,41.7v158.3h116.7
		V241.7H1441.7z M1600,466.7c-36.8,0-66.7-29.9-66.7-66.7c0-36.8,29.9-66.7,66.7-66.7c36.8,0,66.7,29.9,66.7,66.7
		C1666.7,436.8,1636.8,466.7,1600,466.7z M1241.7,241.7V400c0,23-18.6,41.7-41.7,41.7c-23,0-41.7-18.7-41.7-41.7V241.7h-116.7v516.7
		h141.1l175.6-175.6V241.7H1241.7z M641.7,241.7v516.7h116.7V600c0-23,18.7-41.7,41.7-41.7s41.7,18.7,41.7,41.7v158.3h116.7V241.7
		H641.7z M800,466.7c-36.8,0-66.7-29.9-66.7-66.7c0-36.8,29.9-66.7,66.7-66.7c36.8,0,66.7,29.9,66.7,66.7
		C866.7,436.8,836.8,466.7,800,466.7z M400,358.3h158.3V241.7H241.7v516.7h116.7v-200h200V441.7H400c-23,0-41.7-18.7-41.7-41.7
		C358.3,377,377,358.3,400,358.3z"/>
</g>
<g id="Dark">
	<path d="M158.3,158.3v683.3h283.3v-200h116.7v200h658.9l141.1-141.1v141.1h483.3V158.3H158.3z M558.3,358.3H400
		c-23,0-41.7,18.7-41.7,41.7c0,23,18.7,41.7,41.7,41.7h158.3v116.7h-200v200H241.7V241.7h316.7V358.3z M958.3,758.3H841.7V600
		c0-23-18.6-41.7-41.7-41.7S758.3,577,758.3,600v158.3H641.7V241.7h316.7V758.3z M1358.3,582.7l-175.6,175.6h-141.1V241.7h116.7V400
		c0,23,18.7,41.7,41.7,41.7c23,0,41.7-18.7,41.7-41.7V241.7h116.7V582.7z M1758.3,758.3h-116.7V600c0-23-18.7-41.7-41.7-41.7
		s-41.7,18.7-41.7,41.7v158.3h-116.7V241.7h316.7V758.3z M866.7,400c0,36.8-29.9,66.7-66.7,66.7c-36.8,0-66.7-29.9-66.7-66.7
		c0-36.8,29.9-66.7,66.7-66.7C836.8,333.3,866.7,363.2,866.7,400z M1666.7,400c0,36.8-29.9,66.7-66.7,66.7
		c-36.8,0-66.7-29.9-66.7-66.7c0-36.8,29.9-66.7,66.7-66.7C1636.8,333.3,1666.7,363.2,1666.7,400z"/>
</g>
</svg>
