<?xml version="1.0" standalone="no"?>
<!DOCTYPE svg PUBLIC "-//W3C//DTD SVG 20010904//EN"
 "http://www.w3.org/TR/2001/REC-SVG-20010904/DTD/svg10.dtd">
<svg version="1.0" xmlns="http://www.w3.org/2000/svg"
 width="700.000000pt" height="700.000000pt" viewBox="0 0 700.000000 700.000000"
 preserveAspectRatio="xMidYMid meet">
<metadata>
Created by potrace 1.14, written by Peter Selinger 2001-2017
</metadata>
<g transform="translate(0.000000,700.000000) scale(0.100000,-0.100000)"
fill="#000000" stroke="none">
<path d="M1947 6459 c-38 -10 -152 -93 -180 -132 -36 -48 -38 -59 -36 -216 4
-343 2 -381 -16 -381 -12 0 -48 -54 -69 -105 -20 -48 -26 -147 -28 -490 -1
-274 6 -428 23 -472 5 -13 40 -43 79 -68 38 -25 70 -52 70 -60 0 -8 -17 -25
-38 -39 -52 -33 -61 -46 -67 -102 -16 -133 -25 -149 -123 -211 -74 -48 -157
-115 -267 -218 -27 -26 -63 -53 -78 -59 -43 -19 -115 -3 -209 44 -45 23 -129
57 -187 76 -90 30 -119 35 -196 35 -142 -1 -181 -13 -293 -89 -57 -38 -126
-130 -137 -182 -26 -118 -18 -277 20 -384 9 -27 61 -139 115 -250 129 -265
149 -334 151 -511 1 -82 -6 -153 -37 -335 -14 -85 -27 -176 -28 -202 -3 -48
13 -140 27 -154 4 -4 7 -13 7 -20 0 -21 70 -132 87 -139 27 -10 33 7 37 96 2
52 11 106 24 143 26 70 30 76 44 53 17 -32 92 -119 113 -133 31 -21 45 -3 51
67 9 100 70 267 171 468 110 218 118 243 132 423 1 11 6 15 16 12 26 -10 120
-146 149 -217 33 -78 69 -112 172 -158 66 -30 66 -31 61 -64 -10 -59 -215
-350 -271 -384 -17 -10 -58 -26 -91 -36 -117 -33 -188 -110 -200 -215 -10 -91
-16 -113 -43 -160 -14 -25 -28 -47 -31 -50 -4 -3 -21 -28 -40 -57 -43 -69
-101 -127 -151 -153 -22 -11 -91 -32 -153 -46 -62 -14 -115 -28 -119 -32 -14
-15 28 -48 84 -66 9 -2 22 -14 28 -26 10 -19 5 -27 -48 -78 -72 -69 -87 -94
-72 -122 14 -26 42 -32 113 -26 73 5 89 -7 76 -61 -23 -100 2 -125 94 -98 82
24 82 24 82 -49 0 -75 18 -101 93 -136 62 -29 228 -29 356 0 60 13 63 23 27
81 -17 28 -41 79 -52 113 -26 78 -56 117 -116 151 -58 34 -60 36 -69 100 -11
70 -10 75 3 123 18 62 59 115 177 229 84 81 113 103 143 109 50 9 109 39 142
73 26 27 44 60 78 141 23 58 74 114 142 158 65 41 97 52 181 58 63 5 167 33
218 59 26 14 43 11 102 -22 30 -17 36 -27 43 -69 4 -27 14 -86 22 -131 21
-117 19 -146 -20 -256 l-34 -98 32 -19 c18 -11 36 -20 40 -20 4 0 54 -22 110
-49 167 -80 181 -83 372 -87 187 -3 213 -5 330 -29 108 -21 129 -31 170 -76
28 -31 35 -47 35 -80 0 -47 -10 -69 -54 -117 -39 -43 -39 -54 3 -68 40 -13 59
-39 35 -48 -15 -6 -15 -8 1 -26 10 -11 23 -20 29 -20 29 -1 40 -21 41 -77 2
-71 20 -108 74 -151 89 -71 212 -108 330 -98 246 20 261 48 112 206 -44 47
-80 90 -80 95 0 6 11 28 24 50 27 43 33 104 14 151 -5 16 -52 69 -103 119
l-93 91 -32 101 c-39 120 -56 138 -139 138 -29 0 -56 5 -60 11 -11 17 -35 27
-232 98 -309 112 -394 147 -423 175 -25 24 -28 35 -28 89 -1 48 6 74 30 124
39 81 54 150 46 218 -4 30 -8 57 -10 60 -2 4 -7 31 -10 61 -4 29 -8 56 -11 58
-2 2 11 14 30 25 19 12 44 33 56 49 28 35 49 35 173 -8 175 -60 234 -72 387
-80 74 -3 247 -14 320 -19 45 -4 113 16 249 71 181 73 205 75 279 31 31 -19
90 -52 130 -73 82 -43 88 -50 126 -177 14 -48 37 -100 51 -116 13 -16 62 -53
107 -82 46 -29 94 -60 108 -69 14 -9 37 -22 52 -30 59 -30 96 -78 119 -151 23
-78 36 -93 126 -158 67 -48 108 -110 119 -183 4 -24 19 -61 33 -83 19 -29 25
-50 24 -85 -2 -34 3 -50 17 -61 10 -8 20 -24 22 -35 4 -24 34 -49 48 -40 24
15 20 -32 -10 -120 -28 -79 -31 -97 -20 -110 7 -9 14 -35 14 -58 1 -35 4 -42
21 -43 11 0 32 6 47 13 15 7 35 13 46 13 10 0 66 -34 124 -75 123 -87 146 -93
351 -90 120 1 167 12 167 38 -1 7 -28 41 -60 76 -65 70 -74 101 -45 151 25 44
18 65 -35 110 -44 37 -52 50 -77 127 l-28 85 -130 101 c-147 114 -134 104
-208 175 -78 76 -95 114 -112 266 -6 57 -13 72 -61 146 -41 64 -67 91 -148
153 -27 21 -37 38 -42 68 -4 22 -20 59 -36 82 -16 23 -49 71 -72 107 -24 36
-63 84 -86 108 -35 35 -42 47 -34 60 13 21 168 109 191 109 50 0 65 6 98 38
19 20 35 44 35 55 0 12 8 21 23 24 111 21 138 26 181 31 63 7 130 49 191 120
35 41 57 57 88 66 102 27 123 38 148 81 13 22 43 61 67 85 24 25 50 59 57 77
8 18 20 37 27 43 12 10 112 43 130 43 4 0 8 -18 8 -39 0 -57 8 -70 51 -88 22
-8 39 -18 40 -22 4 -31 3 -84 -2 -99 -4 -10 -25 -24 -48 -31 -54 -16 -56 -47
-4 -88 47 -38 28 -47 -50 -23 -31 10 -57 16 -57 13 0 -3 17 -37 37 -76 26 -48
33 -72 25 -75 -22 -7 -42 -33 -42 -55 0 -23 -3 -22 103 -29 17 -1 60 1 94 5
l62 7 -11 -32 c-6 -18 -10 -54 -9 -79 1 -25 -5 -73 -12 -105 -34 -148 32 -254
212 -340 122 -59 148 -64 156 -33 3 13 2 45 -3 71 -17 89 2 157 64 222 54 59
65 82 65 151 1 38 -6 66 -25 101 -30 56 -32 76 -10 95 44 36 58 113 30 165 -8
16 -81 97 -161 179 -81 83 -153 162 -160 177 -9 16 -16 69 -19 141 -2 63 -9
123 -15 135 -15 27 -76 76 -188 149 l-92 60 -28 -18 c-15 -10 -44 -34 -63 -54
-36 -37 -143 -95 -176 -95 -11 0 -39 -6 -63 -13 -48 -15 -150 -6 -180 15 -28
20 -67 71 -73 95 -4 13 0 51 7 85 13 59 14 264 1 328 -10 53 -16 123 -30 345
-6 85 -37 187 -96 313 -46 97 -60 169 -37 178 30 11 122 -41 155 -87 41 -61
61 -77 129 -104 85 -35 96 -53 101 -182 2 -60 8 -116 13 -125 11 -21 79 -53
138 -67 38 -8 41 -7 42 13 2 35 -2 49 -23 78 -13 20 -19 41 -17 71 5 84 21 88
69 20 62 -88 169 -175 217 -176 67 -1 77 4 154 79 100 98 107 117 69 186 -54
96 -68 132 -100 243 -49 175 -53 188 -68 219 -8 16 -52 76 -99 134 -123 152
-136 177 -148 288 -13 116 -20 133 -114 252 -74 95 -94 126 -84 136 12 12 40
6 63 -14 22 -19 35 -24 53 -21 4 0 7 -4 7 -9 0 -6 11 -10 25 -10 14 0 25 2 25
5 0 3 -37 64 -81 137 -45 73 -89 145 -98 160 -14 24 -62 53 -73 43 -7 -6 -168
-19 -253 -20 -78 0 -98 4 -148 27 -32 15 -75 41 -95 56 -72 56 -86 47 -82 -51
2 -29 2 -58 1 -64 -2 -18 -33 -16 -90 7 -28 11 -58 17 -66 14 -17 -7 -16 -13
7 -118 l13 -58 -81 -77 c-66 -63 -158 -132 -279 -209 -43 -27 -183 -90 -227
-102 -52 -14 -54 -25 -12 -70 22 -24 23 -27 8 -48 -16 -23 -216 -162 -232
-162 -14 0 -42 -35 -42 -53 0 -9 9 -31 20 -50 16 -27 18 -40 11 -60 -13 -33
-45 -52 -59 -34 -5 7 -12 135 -16 292 -6 268 -13 472 -20 635 -3 81 -27 148
-65 188 -25 25 -30 26 -52 9 -45 -35 -50 -145 -39 -1017 3 -284 2 -316 -9
-305 -5 6 -12 73 -15 150 -6 151 -9 174 -32 279 -20 93 -45 137 -105 188 -69
58 -75 71 -50 111 11 18 31 43 45 56 16 15 23 30 20 45 -14 58 -16 97 -6 123
7 22 5 43 -9 88 -10 33 -16 68 -13 77 19 62 17 68 -53 140 -85 88 -145 128
-181 122 -31 -6 -145 -69 -162 -90 -9 -9 -12 -44 -10 -102 4 -168 3 -387 -3
-416 -13 -61 -95 -116 -160 -107 -16 2 34 76 68 101 29 21 60 71 50 82 -12 13
-12 89 0 111 12 23 12 34 1 72 -13 40 -14 97 -3 150 3 11 0 28 -4 37 -11 21
-225 163 -258 171 -14 3 -42 -2 -65 -12 -23 -9 -60 -26 -83 -36 -23 -9 -52
-28 -64 -41 -21 -23 -22 -32 -26 -291 -2 -148 -6 -274 -8 -280 -8 -24 -41 -13
-79 26 -46 48 -44 78 8 110 44 28 49 44 24 76 -23 29 -26 77 -7 128 11 30 9
43 -11 106 -22 67 -23 74 -8 99 24 41 9 62 -93 133 -116 79 -121 82 -167 66
-55 -19 -177 -103 -189 -130 -7 -14 -12 -104 -13 -218 -1 -107 -1 -213 -2
-237 0 -47 -19 -65 -54 -52 -24 9 -84 67 -84 81 0 5 14 23 30 41 31 32 38 62
19 74 -7 4 -9 30 -4 78 5 65 4 75 -19 108 -31 46 -35 67 -20 98 15 31 11 94
-7 116 -17 21 -151 112 -181 123 -13 4 -35 5 -51 0z"/>
</g>
</svg>
