<?xml version="1.0" encoding="utf-8"?>
<!-- Generator: Adobe Illustrator 27.4.1, SVG Export Plug-In . SVG Version: 6.00 Build 0)  -->
<svg version="1.1" id="Layer_1" xmlns="http://www.w3.org/2000/svg" xmlns:xlink="http://www.w3.org/1999/xlink" x="0px" y="0px"
	 viewBox="0 0 450 200" style="enable-background:new 0 0 450 200;" xml:space="preserve">
<g>
	<path style="fill:#FFFFFF;" d="M75,64.6h39.6V35.4H35.4v129.2h29.2v-50h50V85.4H75c-5.8,0-10.4-4.7-10.4-10.4S69.2,64.6,75,64.6z
		 M135.4,35.4v129.2h29.2V125c0-5.8,4.7-10.4,10.4-10.4s10.4,4.7,10.4,10.4v39.6h29.2V35.4H135.4z M175,91.7
		c-9.2,0-16.7-7.5-16.7-16.7c0-9.2,7.5-16.7,16.7-16.7c9.2,0,16.7,7.5,16.7,16.7S184.2,91.7,175,91.7z M285.4,35.4V75
		c0,5.8-4.7,10.4-10.4,10.4s-10.4-4.7-10.4-10.4V35.4h-29.2v129.2h35.3l43.9-43.9V35.4H285.4z M335.4,35.4v129.2h29.2V125
		c0-5.8,4.7-10.4,10.4-10.4s10.4,4.7,10.4,10.4v39.6h29.2V35.4H335.4z M375,91.7c-9.2,0-16.7-7.5-16.7-16.7
		c0-9.2,7.5-16.7,16.7-16.7c9.2,0,16.7,7.5,16.7,16.7S384.2,91.7,375,91.7z M335.4,35.4v129.2h29.2V125c0-5.8,4.7-10.4,10.4-10.4
		s10.4,4.7,10.4,10.4v39.6h29.2V35.4H335.4z M375,91.7c-9.2,0-16.7-7.5-16.7-16.7c0-9.2,7.5-16.7,16.7-16.7
		c9.2,0,16.7,7.5,16.7,16.7S384.2,91.7,375,91.7z M285.4,35.4V75c0,5.8-4.7,10.4-10.4,10.4s-10.4-4.7-10.4-10.4V35.4h-29.2v129.2
		h35.3l43.9-43.9V35.4H285.4z M135.4,35.4v129.2h29.2V125c0-5.8,4.7-10.4,10.4-10.4s10.4,4.7,10.4,10.4v39.6h29.2V35.4H135.4z
		 M175,91.7c-9.2,0-16.7-7.5-16.7-16.7c0-9.2,7.5-16.7,16.7-16.7c9.2,0,16.7,7.5,16.7,16.7S184.2,91.7,175,91.7z M75,64.6h39.6V35.4
		H35.4v129.2h29.2v-50h50V85.4H75c-5.8,0-10.4-4.7-10.4-10.4S69.2,64.6,75,64.6z M75,64.6h39.6V35.4H35.4v129.2h29.2v-50h50V85.4H75
		c-5.8,0-10.4-4.7-10.4-10.4S69.2,64.6,75,64.6z M135.4,35.4v129.2h29.2V125c0-5.8,4.7-10.4,10.4-10.4s10.4,4.7,10.4,10.4v39.6h29.2
		V35.4H135.4z M175,91.7c-9.2,0-16.7-7.5-16.7-16.7c0-9.2,7.5-16.7,16.7-16.7c9.2,0,16.7,7.5,16.7,16.7S184.2,91.7,175,91.7z
		 M285.4,35.4V75c0,5.8-4.7,10.4-10.4,10.4s-10.4-4.7-10.4-10.4V35.4h-29.2v129.2h35.3l43.9-43.9V35.4H285.4z M335.4,35.4v129.2
		h29.2V125c0-5.8,4.7-10.4,10.4-10.4s10.4,4.7,10.4,10.4v39.6h29.2V35.4H335.4z M375,91.7c-9.2,0-16.7-7.5-16.7-16.7
		c0-9.2,7.5-16.7,16.7-16.7c9.2,0,16.7,7.5,16.7,16.7S384.2,91.7,375,91.7z M335.4,35.4v129.2h29.2V125c0-5.8,4.7-10.4,10.4-10.4
		s10.4,4.7,10.4,10.4v39.6h29.2V35.4H335.4z M375,91.7c-9.2,0-16.7-7.5-16.7-16.7c0-9.2,7.5-16.7,16.7-16.7
		c9.2,0,16.7,7.5,16.7,16.7S384.2,91.7,375,91.7z M285.4,35.4V75c0,5.8-4.7,10.4-10.4,10.4s-10.4-4.7-10.4-10.4V35.4h-29.2v129.2
		h35.3l43.9-43.9V35.4H285.4z M135.4,35.4v129.2h29.2V125c0-5.8,4.7-10.4,10.4-10.4s10.4,4.7,10.4,10.4v39.6h29.2V35.4H135.4z
		 M175,91.7c-9.2,0-16.7-7.5-16.7-16.7c0-9.2,7.5-16.7,16.7-16.7c9.2,0,16.7,7.5,16.7,16.7S184.2,91.7,175,91.7z M75,64.6h39.6V35.4
		H35.4v129.2h29.2v-50h50V85.4H75c-5.8,0-10.4-4.7-10.4-10.4S69.2,64.6,75,64.6z M75,64.6h39.6V35.4H35.4v129.2h29.2v-50h50V85.4H75
		c-5.8,0-10.4-4.7-10.4-10.4S69.2,64.6,75,64.6z M135.4,35.4v129.2h29.2V125c0-5.8,4.7-10.4,10.4-10.4s10.4,4.7,10.4,10.4v39.6h29.2
		V35.4H135.4z M175,91.7c-9.2,0-16.7-7.5-16.7-16.7c0-9.2,7.5-16.7,16.7-16.7c9.2,0,16.7,7.5,16.7,16.7S184.2,91.7,175,91.7z
		 M285.4,35.4V75c0,5.8-4.7,10.4-10.4,10.4s-10.4-4.7-10.4-10.4V35.4h-29.2v129.2h35.3l43.9-43.9V35.4H285.4z M335.4,35.4v129.2
		h29.2V125c0-5.8,4.7-10.4,10.4-10.4s10.4,4.7,10.4,10.4v39.6h29.2V35.4H335.4z M375,91.7c-9.2,0-16.7-7.5-16.7-16.7
		c0-9.2,7.5-16.7,16.7-16.7c9.2,0,16.7,7.5,16.7,16.7S384.2,91.7,375,91.7z M335.4,35.4v129.2h29.2V125c0-5.8,4.7-10.4,10.4-10.4
		s10.4,4.7,10.4,10.4v39.6h29.2V35.4H335.4z M375,91.7c-9.2,0-16.7-7.5-16.7-16.7c0-9.2,7.5-16.7,16.7-16.7
		c9.2,0,16.7,7.5,16.7,16.7S384.2,91.7,375,91.7z M285.4,35.4V75c0,5.8-4.7,10.4-10.4,10.4s-10.4-4.7-10.4-10.4V35.4h-29.2v129.2
		h35.3l43.9-43.9V35.4H285.4z M135.4,35.4v129.2h29.2V125c0-5.8,4.7-10.4,10.4-10.4s10.4,4.7,10.4,10.4v39.6h29.2V35.4H135.4z
		 M175,91.7c-9.2,0-16.7-7.5-16.7-16.7c0-9.2,7.5-16.7,16.7-16.7c9.2,0,16.7,7.5,16.7,16.7S184.2,91.7,175,91.7z M75,64.6h39.6V35.4
		H35.4v129.2h29.2v-50h50V85.4H75c-5.8,0-10.4-4.7-10.4-10.4S69.2,64.6,75,64.6z M75,64.6h39.6V35.4H35.4v129.2h29.2v-50h50V85.4H75
		c-5.8,0-10.4-4.7-10.4-10.4S69.2,64.6,75,64.6z M135.4,35.4v129.2h29.2V125c0-5.8,4.7-10.4,10.4-10.4s10.4,4.7,10.4,10.4v39.6h29.2
		V35.4H135.4z M175,91.7c-9.2,0-16.7-7.5-16.7-16.7c0-9.2,7.5-16.7,16.7-16.7c9.2,0,16.7,7.5,16.7,16.7S184.2,91.7,175,91.7z
		 M285.4,35.4V75c0,5.8-4.7,10.4-10.4,10.4s-10.4-4.7-10.4-10.4V35.4h-29.2v129.2h35.3l43.9-43.9V35.4H285.4z M335.4,35.4v129.2
		h29.2V125c0-5.8,4.7-10.4,10.4-10.4s10.4,4.7,10.4,10.4v39.6h29.2V35.4H335.4z M375,91.7c-9.2,0-16.7-7.5-16.7-16.7
		c0-9.2,7.5-16.7,16.7-16.7c9.2,0,16.7,7.5,16.7,16.7S384.2,91.7,375,91.7z M335.4,35.4v129.2h29.2V125c0-5.8,4.7-10.4,10.4-10.4
		s10.4,4.7,10.4,10.4v39.6h29.2V35.4H335.4z M375,91.7c-9.2,0-16.7-7.5-16.7-16.7c0-9.2,7.5-16.7,16.7-16.7
		c9.2,0,16.7,7.5,16.7,16.7S384.2,91.7,375,91.7z M285.4,35.4V75c0,5.8-4.7,10.4-10.4,10.4s-10.4-4.7-10.4-10.4V35.4h-29.2v129.2
		h35.3l43.9-43.9V35.4H285.4z M135.4,35.4v129.2h29.2V125c0-5.8,4.7-10.4,10.4-10.4s10.4,4.7,10.4,10.4v39.6h29.2V35.4H135.4z
		 M175,91.7c-9.2,0-16.7-7.5-16.7-16.7c0-9.2,7.5-16.7,16.7-16.7c9.2,0,16.7,7.5,16.7,16.7S184.2,91.7,175,91.7z M75,64.6h39.6V35.4
		H35.4v129.2h29.2v-50h50V85.4H75c-5.8,0-10.4-4.7-10.4-10.4S69.2,64.6,75,64.6z M75,64.6h39.6V35.4H35.4v129.2h29.2v-50h50V85.4H75
		c-5.8,0-10.4-4.7-10.4-10.4S69.2,64.6,75,64.6z M135.4,35.4v129.2h29.2V125c0-5.8,4.7-10.4,10.4-10.4s10.4,4.7,10.4,10.4v39.6h29.2
		V35.4H135.4z M175,91.7c-9.2,0-16.7-7.5-16.7-16.7c0-9.2,7.5-16.7,16.7-16.7c9.2,0,16.7,7.5,16.7,16.7S184.2,91.7,175,91.7z
		 M285.4,35.4V75c0,5.8-4.7,10.4-10.4,10.4s-10.4-4.7-10.4-10.4V35.4h-29.2v129.2h35.3l43.9-43.9V35.4H285.4z M335.4,35.4v129.2
		h29.2V125c0-5.8,4.7-10.4,10.4-10.4s10.4,4.7,10.4,10.4v39.6h29.2V35.4H335.4z M375,91.7c-9.2,0-16.7-7.5-16.7-16.7
		c0-9.2,7.5-16.7,16.7-16.7c9.2,0,16.7,7.5,16.7,16.7S384.2,91.7,375,91.7z M335.4,35.4v129.2h29.2V125c0-5.8,4.7-10.4,10.4-10.4
		s10.4,4.7,10.4,10.4v39.6h29.2V35.4H335.4z M375,91.7c-9.2,0-16.7-7.5-16.7-16.7c0-9.2,7.5-16.7,16.7-16.7
		c9.2,0,16.7,7.5,16.7,16.7S384.2,91.7,375,91.7z M285.4,75c0,5.8-4.7,10.4-10.4,10.4s-10.4-4.7-10.4-10.4V35.4h-29.2v129.2h35.3
		l43.9-43.9V35.4h-29.2L285.4,75L285.4,75z M135.4,164.6h29.2V125c0-5.8,4.7-10.4,10.4-10.4s10.4,4.7,10.4,10.4v39.6h29.2V35.4
		h-79.2V164.6z M175,58.3c9.2,0,16.7,7.5,16.7,16.7s-7.5,16.7-16.7,16.7s-16.7-7.5-16.7-16.7S165.8,58.3,175,58.3z M35.4,164.6h29.2
		v-50h50V85.4H75c-5.8,0-10.4-4.7-10.4-10.4S69.2,64.6,75,64.6h39.6V35.4H35.4V164.6z M0,0v200h285.4l14.6-14.6V200h150V0H0z
		 M435.4,185.4H314.6v-35.3l-35.3,35.3H114.6v-50H85.4v50H14.6V14.6h420.8L435.4,185.4L435.4,185.4z M364.6,125
		c0-5.8,4.7-10.4,10.4-10.4s10.4,4.7,10.4,10.4v39.6h29.2V35.4h-79.2v129.2h29.2L364.6,125L364.6,125z M358.3,75
		c0-9.2,7.5-16.7,16.7-16.7c9.2,0,16.7,7.5,16.7,16.7s-7.5,16.7-16.7,16.7C365.8,91.7,358.3,84.2,358.3,75z M314.6,120.7V35.4h-29.2
		V75c0,5.8-4.7,10.4-10.4,10.4s-10.4-4.7-10.4-10.4V35.4h-29.2v129.2h35.3L314.6,120.7z M164.6,125c0-5.8,4.7-10.4,10.4-10.4
		s10.4,4.7,10.4,10.4v39.6h29.2V35.4h-79.2v129.2h29.2L164.6,125L164.6,125z M158.3,75c0-9.2,7.5-16.7,16.7-16.7
		c9.2,0,16.7,7.5,16.7,16.7s-7.5,16.7-16.7,16.7S158.3,84.2,158.3,75z M64.6,114.6h50V85.4H75c-5.8,0-10.4-4.7-10.4-10.4
		S69.2,64.6,75,64.6h39.6V35.4H35.4v129.2h29.2L64.6,114.6L64.6,114.6z M75,64.6h39.6V35.4H35.4v129.2h29.2v-50h50V85.4H75
		c-5.8,0-10.4-4.7-10.4-10.4S69.2,64.6,75,64.6z M135.4,35.4v129.2h29.2V125c0-5.8,4.7-10.4,10.4-10.4s10.4,4.7,10.4,10.4v39.6h29.2
		V35.4H135.4z M175,91.7c-9.2,0-16.7-7.5-16.7-16.7c0-9.2,7.5-16.7,16.7-16.7c9.2,0,16.7,7.5,16.7,16.7S184.2,91.7,175,91.7z
		 M285.4,35.4V75c0,5.8-4.7,10.4-10.4,10.4s-10.4-4.7-10.4-10.4V35.4h-29.2v129.2h35.3l43.9-43.9V35.4H285.4z M335.4,35.4v129.2
		h29.2V125c0-5.8,4.7-10.4,10.4-10.4s10.4,4.7,10.4,10.4v39.6h29.2V35.4H335.4z M375,91.7c-9.2,0-16.7-7.5-16.7-16.7
		c0-9.2,7.5-16.7,16.7-16.7c9.2,0,16.7,7.5,16.7,16.7S384.2,91.7,375,91.7z M335.4,35.4v129.2h29.2V125c0-5.8,4.7-10.4,10.4-10.4
		s10.4,4.7,10.4,10.4v39.6h29.2V35.4H335.4z M375,91.7c-9.2,0-16.7-7.5-16.7-16.7c0-9.2,7.5-16.7,16.7-16.7
		c9.2,0,16.7,7.5,16.7,16.7S384.2,91.7,375,91.7z M285.4,35.4V75c0,5.8-4.7,10.4-10.4,10.4s-10.4-4.7-10.4-10.4V35.4h-29.2v129.2
		h35.3l43.9-43.9V35.4H285.4z M135.4,35.4v129.2h29.2V125c0-5.8,4.7-10.4,10.4-10.4s10.4,4.7,10.4,10.4v39.6h29.2V35.4H135.4z
		 M175,91.7c-9.2,0-16.7-7.5-16.7-16.7c0-9.2,7.5-16.7,16.7-16.7c9.2,0,16.7,7.5,16.7,16.7S184.2,91.7,175,91.7z M75,64.6h39.6V35.4
		H35.4v129.2h29.2v-50h50V85.4H75c-5.8,0-10.4-4.7-10.4-10.4S69.2,64.6,75,64.6z M75,64.6h39.6V35.4H35.4v129.2h29.2v-50h50V85.4H75
		c-5.8,0-10.4-4.7-10.4-10.4S69.2,64.6,75,64.6z M135.4,35.4v129.2h29.2V125c0-5.8,4.7-10.4,10.4-10.4s10.4,4.7,10.4,10.4v39.6h29.2
		V35.4H135.4z M175,91.7c-9.2,0-16.7-7.5-16.7-16.7c0-9.2,7.5-16.7,16.7-16.7c9.2,0,16.7,7.5,16.7,16.7S184.2,91.7,175,91.7z
		 M285.4,35.4V75c0,5.8-4.7,10.4-10.4,10.4s-10.4-4.7-10.4-10.4V35.4h-29.2v129.2h35.3l43.9-43.9V35.4H285.4z M335.4,35.4v129.2
		h29.2V125c0-5.8,4.7-10.4,10.4-10.4s10.4,4.7,10.4,10.4v39.6h29.2V35.4H335.4z M375,91.7c-9.2,0-16.7-7.5-16.7-16.7
		c0-9.2,7.5-16.7,16.7-16.7c9.2,0,16.7,7.5,16.7,16.7S384.2,91.7,375,91.7z M335.4,35.4v129.2h29.2V125c0-5.8,4.7-10.4,10.4-10.4
		s10.4,4.7,10.4,10.4v39.6h29.2V35.4H335.4z M375,91.7c-9.2,0-16.7-7.5-16.7-16.7c0-9.2,7.5-16.7,16.7-16.7
		c9.2,0,16.7,7.5,16.7,16.7S384.2,91.7,375,91.7z M285.4,35.4V75c0,5.8-4.7,10.4-10.4,10.4s-10.4-4.7-10.4-10.4V35.4h-29.2v129.2
		h35.3l43.9-43.9V35.4H285.4z M135.4,35.4v129.2h29.2V125c0-5.8,4.7-10.4,10.4-10.4s10.4,4.7,10.4,10.4v39.6h29.2V35.4H135.4z
		 M175,91.7c-9.2,0-16.7-7.5-16.7-16.7c0-9.2,7.5-16.7,16.7-16.7c9.2,0,16.7,7.5,16.7,16.7S184.2,91.7,175,91.7z M75,64.6h39.6V35.4
		H35.4v129.2h29.2v-50h50V85.4H75c-5.8,0-10.4-4.7-10.4-10.4S69.2,64.6,75,64.6z M75,64.6h39.6V35.4H35.4v129.2h29.2v-50h50V85.4H75
		c-5.8,0-10.4-4.7-10.4-10.4S69.2,64.6,75,64.6z M135.4,35.4v129.2h29.2V125c0-5.8,4.7-10.4,10.4-10.4s10.4,4.7,10.4,10.4v39.6h29.2
		V35.4H135.4z M175,91.7c-9.2,0-16.7-7.5-16.7-16.7c0-9.2,7.5-16.7,16.7-16.7c9.2,0,16.7,7.5,16.7,16.7S184.2,91.7,175,91.7z
		 M285.4,35.4V75c0,5.8-4.7,10.4-10.4,10.4s-10.4-4.7-10.4-10.4V35.4h-29.2v129.2h35.3l43.9-43.9V35.4H285.4z M335.4,35.4v129.2
		h29.2V125c0-5.8,4.7-10.4,10.4-10.4s10.4,4.7,10.4,10.4v39.6h29.2V35.4H335.4z M375,91.7c-9.2,0-16.7-7.5-16.7-16.7
		c0-9.2,7.5-16.7,16.7-16.7c9.2,0,16.7,7.5,16.7,16.7S384.2,91.7,375,91.7z M335.4,35.4v129.2h29.2V125c0-5.8,4.7-10.4,10.4-10.4
		s10.4,4.7,10.4,10.4v39.6h29.2V35.4H335.4z M375,91.7c-9.2,0-16.7-7.5-16.7-16.7c0-9.2,7.5-16.7,16.7-16.7
		c9.2,0,16.7,7.5,16.7,16.7S384.2,91.7,375,91.7z M285.4,35.4V75c0,5.8-4.7,10.4-10.4,10.4s-10.4-4.7-10.4-10.4V35.4h-29.2v129.2
		h35.3l43.9-43.9V35.4H285.4z M135.4,35.4v129.2h29.2V125c0-5.8,4.7-10.4,10.4-10.4s10.4,4.7,10.4,10.4v39.6h29.2V35.4H135.4z
		 M175,91.7c-9.2,0-16.7-7.5-16.7-16.7c0-9.2,7.5-16.7,16.7-16.7c9.2,0,16.7,7.5,16.7,16.7S184.2,91.7,175,91.7z M75,64.6h39.6V35.4
		H35.4v129.2h29.2v-50h50V85.4H75c-5.8,0-10.4-4.7-10.4-10.4S69.2,64.6,75,64.6z M75,64.6h39.6V35.4H35.4v129.2h29.2v-50h50V85.4H75
		c-5.8,0-10.4-4.7-10.4-10.4S69.2,64.6,75,64.6z M135.4,35.4v129.2h29.2V125c0-5.8,4.7-10.4,10.4-10.4s10.4,4.7,10.4,10.4v39.6h29.2
		V35.4H135.4z M175,91.7c-9.2,0-16.7-7.5-16.7-16.7c0-9.2,7.5-16.7,16.7-16.7c9.2,0,16.7,7.5,16.7,16.7S184.2,91.7,175,91.7z
		 M285.4,35.4V75c0,5.8-4.7,10.4-10.4,10.4s-10.4-4.7-10.4-10.4V35.4h-29.2v129.2h35.3l43.9-43.9V35.4H285.4z M335.4,35.4v129.2
		h29.2V125c0-5.8,4.7-10.4,10.4-10.4s10.4,4.7,10.4,10.4v39.6h29.2V35.4H335.4z M375,91.7c-9.2,0-16.7-7.5-16.7-16.7
		c0-9.2,7.5-16.7,16.7-16.7c9.2,0,16.7,7.5,16.7,16.7S384.2,91.7,375,91.7z M335.4,35.4v129.2h29.2V125c0-5.8,4.7-10.4,10.4-10.4
		s10.4,4.7,10.4,10.4v39.6h29.2V35.4H335.4z M375,91.7c-9.2,0-16.7-7.5-16.7-16.7c0-9.2,7.5-16.7,16.7-16.7
		c9.2,0,16.7,7.5,16.7,16.7S384.2,91.7,375,91.7z M285.4,35.4V75c0,5.8-4.7,10.4-10.4,10.4s-10.4-4.7-10.4-10.4V35.4h-29.2v129.2
		h35.3l43.9-43.9V35.4H285.4z M135.4,35.4v129.2h29.2V125c0-5.8,4.7-10.4,10.4-10.4s10.4,4.7,10.4,10.4v39.6h29.2V35.4H135.4z
		 M175,91.7c-9.2,0-16.7-7.5-16.7-16.7c0-9.2,7.5-16.7,16.7-16.7c9.2,0,16.7,7.5,16.7,16.7S184.2,91.7,175,91.7z M75,64.6h39.6V35.4
		H35.4v129.2h29.2v-50h50V85.4H75c-5.8,0-10.4-4.7-10.4-10.4S69.2,64.6,75,64.6z M75,64.6h39.6V35.4H35.4v129.2h29.2v-50h50V85.4H75
		c-5.8,0-10.4-4.7-10.4-10.4S69.2,64.6,75,64.6z M135.4,35.4v129.2h29.2V125c0-5.8,4.7-10.4,10.4-10.4s10.4,4.7,10.4,10.4v39.6h29.2
		V35.4H135.4z M175,91.7c-9.2,0-16.7-7.5-16.7-16.7c0-9.2,7.5-16.7,16.7-16.7c9.2,0,16.7,7.5,16.7,16.7S184.2,91.7,175,91.7z
		 M285.4,35.4V75c0,5.8-4.7,10.4-10.4,10.4s-10.4-4.7-10.4-10.4V35.4h-29.2v129.2h35.3l43.9-43.9V35.4H285.4z M335.4,35.4v129.2
		h29.2V125c0-5.8,4.7-10.4,10.4-10.4s10.4,4.7,10.4,10.4v39.6h29.2V35.4H335.4z M375,91.7c-9.2,0-16.7-7.5-16.7-16.7
		c0-9.2,7.5-16.7,16.7-16.7c9.2,0,16.7,7.5,16.7,16.7S384.2,91.7,375,91.7z M335.4,35.4v129.2h29.2V125c0-5.8,4.7-10.4,10.4-10.4
		s10.4,4.7,10.4,10.4v39.6h29.2V35.4H335.4z M375,91.7c-9.2,0-16.7-7.5-16.7-16.7c0-9.2,7.5-16.7,16.7-16.7
		c9.2,0,16.7,7.5,16.7,16.7S384.2,91.7,375,91.7z M285.4,35.4V75c0,5.8-4.7,10.4-10.4,10.4s-10.4-4.7-10.4-10.4V35.4h-29.2v129.2
		h35.3l43.9-43.9V35.4H285.4z M135.4,35.4v129.2h29.2V125c0-5.8,4.7-10.4,10.4-10.4s10.4,4.7,10.4,10.4v39.6h29.2V35.4H135.4z
		 M175,91.7c-9.2,0-16.7-7.5-16.7-16.7c0-9.2,7.5-16.7,16.7-16.7c9.2,0,16.7,7.5,16.7,16.7S184.2,91.7,175,91.7z M75,64.6h39.6V35.4
		H35.4v129.2h29.2v-50h50V85.4H75c-5.8,0-10.4-4.7-10.4-10.4S69.2,64.6,75,64.6z"/>
	
		<linearGradient id="SVGID_1_" gradientUnits="userSpaceOnUse" x1="225" y1="-485.4125" x2="225" y2="-314.5875" gradientTransform="matrix(1 0 0 1 0 500)">
		<stop  offset="0" style="stop-color:#0D7589"/>
		<stop  offset="0.38" style="stop-color:#0D7589"/>
		<stop  offset="1" style="stop-color:#306272"/>
	</linearGradient>
	<path style="fill:url(#SVGID_1_);" d="M14.6,14.6v170.8h70.8v-50h29.2v50h164.7l35.3-35.3v35.3h120.8V14.6H14.6z M114.6,64.6H75
		c-5.8,0-10.4,4.7-10.4,10.4S69.3,85.4,75,85.4h39.6v29.2h-50v50H35.4V35.4h79.2L114.6,64.6L114.6,64.6z M214.6,164.6h-29.1V125
		c0-5.8-4.6-10.4-10.4-10.4s-10.4,4.7-10.4,10.4v39.6h-29.1V35.4h79.2L214.6,164.6L214.6,164.6z M314.6,120.7l-43.9,43.9h-35.3V35.4
		h29.2V75c0,5.8,4.7,10.4,10.4,10.4s10.4-4.7,10.4-10.4V35.4h29.2L314.6,120.7L314.6,120.7z M414.6,164.6h-29.2V125
		c0-5.8-4.7-10.4-10.4-10.4s-10.4,4.7-10.4,10.4v39.6h-29.2V35.4h79.2L414.6,164.6L414.6,164.6z M391.7,75c0,9.2-7.5,16.7-16.7,16.7
		c-9.2,0-16.7-7.5-16.7-16.7s7.5-16.7,16.7-16.7C384.2,58.3,391.7,65.8,391.7,75z M191.7,75c0,9.2-7.5,16.7-16.7,16.7
		s-16.7-7.5-16.7-16.7s7.5-16.7,16.7-16.7S191.7,65.8,191.7,75z"/>
</g>
</svg>
